<svg xmlns="http://www.w3.org/2000/svg" viewBox="0 0 500 500"><g id="freepik--Device--inject-17"><g id="freepik--Laptop--inject-17"><path d="M51.44,364.16c0,3.37,2.52,7.56,5.64,9.36L179.82,444.4a12.46,12.46,0,0,0,11.28,0L407.24,319.61c3.12-1.8,5.64-6,5.64-9.36s-2.52-7.57-5.64-9.36L284.5,230a12.46,12.46,0,0,0-11.28,0L57.08,354.8C54,356.59,51.44,360.78,51.44,364.16Z" style="fill:#3FDFC8"></path><path d="M412.88,310.25c0,3.38-2.52,7.56-5.63,9.36L191.1,444.41a11.63,11.63,0,0,1-5.63,1.34V433.54a11.52,11.52,0,0,0,5.63-1.35L407.25,307.4c2.72-1.57,3.06-4,1-5.79C410.89,303.64,412.88,307.26,412.88,310.25Z" style="opacity:0.5"></path><path d="M57.08,361.31l122.74,70.88a12.46,12.46,0,0,0,11.28,0L407.24,307.4c3.12-1.8,3.12-4.72,0-6.51L284.5,230a12.46,12.46,0,0,0-11.28,0L57.08,354.8C54,356.59,54,359.51,57.08,361.31Z" style="opacity:0.30000000000000004"></path><path d="M185.46,433.55v12.2a11.57,11.57,0,0,1-5.63-1.34L57.07,373.52c-3.11-1.8-5.63-6-5.63-9.36,0-3.17,2.22-7.05,5.06-9-2.52,1.81-2.33,4.47.57,6.15l122.76,70.88A11.47,11.47,0,0,0,185.46,433.55Z" style="opacity:0.6000000000000001"></path><path d="M46.15,355c-2.92-1.69-2.76-4.54-2.76-8.13V177.32A12.47,12.47,0,0,1,49,167.56L265.17,42.77c3.11-1.8,6-.5,8.9,1.19s4.79,3.14,4.79,6.74V220.24a12.48,12.48,0,0,1-5.64,9.77L57.08,354.8C54,356.59,49.07,356.68,46.15,355Z" style="fill:#3FDFC8"></path><path d="M278.86,50.69c0-3.59-2.53-5-5.64-3.25L57.07,172.23a11.51,11.51,0,0,0-4,4.22L45,171.77h0a11.63,11.63,0,0,1,4-4.22L265.16,42.77c3.12-1.8,6-.5,8.91,1.19S278.86,47.1,278.86,50.69Z" style="opacity:0.30000000000000004"></path><path d="M51.44,182V351.54c0,3.6,2.52,5,5.64,3.26L273.22,230a12.48,12.48,0,0,0,5.64-9.77V50.7c0-3.6-2.53-5.06-5.64-3.26L57.08,172.23A12.45,12.45,0,0,0,51.44,182Z" style="opacity:0.5"></path><path d="M56.41,355.14c-3.11,1.45-7.54,1.43-10.26-.15-2.92-1.68-2.76-4.53-2.76-8.12V177.32A11.47,11.47,0,0,1,45,171.77l8.05,4.66h0A11.5,11.5,0,0,0,51.44,182V351.54C51.44,354.88,53.61,356.37,56.41,355.14Z" style="opacity:0.6000000000000001"></path><path d="M60.11,178.73,268.5,58.45c1.87-1.08,3.38-.2,3.38,1.95v148a7.48,7.48,0,0,1-3.38,5.86L60.11,334.55c-1.87,1.08-3.38.2-3.38-2v-148A7.48,7.48,0,0,1,60.11,178.73Z" style="fill:#fafafa"></path><path d="M72.68,355.13,273.31,239.3a6.21,6.21,0,0,1,5.63,0l5.84,3.06c1.56.9,1.56,2.36,0,3.26L84.12,361.43a6.23,6.23,0,0,1-5.64,0l-5.8-3.05C71.12,357.48,71.12,356,72.68,355.13Z" style="fill:#3FDFC8"></path><path d="M72.68,355.13,273.31,239.3a6.21,6.21,0,0,1,5.63,0l5.84,3.06c1.56.9,1.56,2.36,0,3.26L84.12,361.43a6.23,6.23,0,0,1-5.64,0l-5.8-3.05C71.12,357.48,71.12,356,72.68,355.13Z" style="opacity:0.45"></path><path d="M88.41,364.49,289,248.65a5.75,5.75,0,0,1,5.15-.28l52.22,30.15c1.29.75,1.07,2.08-.49,3L145.53,397.17a5.78,5.78,0,0,1-5.16.29l-52.44-30C86.64,366.71,86.86,365.38,88.41,364.49Z" style="fill:#263238;opacity:0.30000000000000004"></path><path d="M260.6,296.83l6.28-3.63c.27-.15.31-.38.09-.5l-5.54-3.2a1,1,0,0,0-.88.05l-6.28,3.62c-.27.16-.31.38-.09.51l5.54,3.2A1,1,0,0,0,260.6,296.83Zm-8.76-12.31-6.28,3.62c-.27.16-.31.38-.09.51l5.54,3.2a1,1,0,0,0,.88-.05l6.28-3.63c.27-.15.31-.38.09-.51l-5.54-3.19A1,1,0,0,0,251.84,284.52Zm-20.3,11.71-10.63,6.14c-.26.15-.3.38-.09.51l5.55,3.2a1,1,0,0,0,.88-.05l10.63-6.14c.26-.15.3-.38.08-.51l-5.54-3.2A1,1,0,0,0,231.54,296.23Zm11.12-6.41-6.29,3.62c-.26.16-.3.38-.08.51l5.54,3.2a1,1,0,0,0,.88,0l6.28-3.63c.27-.15.31-.38.09-.5l-5.54-3.2A1,1,0,0,0,242.66,289.82ZM218,304l-6.28,3.63c-.27.15-.3.38-.09.51l5.55,3.2a1,1,0,0,0,.87-.05l6.29-3.63c.26-.15.3-.38.08-.51l-5.54-3.2A1,1,0,0,0,218,304Zm-9.18,5.3L202.55,313c-.27.16-.31.38-.09.51l5.54,3.2a1,1,0,0,0,.88-.05l6.29-3.63c.26-.15.3-.38.08-.51l-5.54-3.2A1,1,0,0,0,208.83,309.34Zm23.28,14,6.28-3.62c.27-.16.31-.39.09-.51l-5.54-3.2a1,1,0,0,0-.88.05l-6.28,3.63c-.27.15-.31.38-.09.5l5.54,3.2A1,1,0,0,0,232.11,323.34Zm-9.18,5.3,6.28-3.62c.27-.16.31-.38.09-.51l-5.54-3.2a1,1,0,0,0-.88.05L216.6,325c-.27.15-.31.38-.09.5l5.54,3.2A1,1,0,0,0,222.93,328.64Zm-9.18,5.3,6.28-3.62c.27-.16.31-.38.09-.51l-5.54-3.2a1,1,0,0,0-.88.05l-6.28,3.63c-.27.15-.31.38-.09.5l5.54,3.2A1,1,0,0,0,213.75,333.94Zm-9.18,5.3,6.28-3.62c.27-.16.31-.38.09-.51l-5.54-3.2a1,1,0,0,0-.88,0l-6.28,3.63c-.27.15-.31.38-.09.51l5.54,3.19A1,1,0,0,0,204.57,339.24Zm46.85-37.11,6.28-3.63c.27-.15.31-.38.09-.5l-5.54-3.2a1,1,0,0,0-.88.05l-6.28,3.62c-.27.16-.31.39-.09.51l5.54,3.2A1,1,0,0,0,251.42,302.13ZM241.29,318l14-8.09c.27-.15.31-.38.09-.51l-14.25-8.23a1,1,0,0,0-.88.05L233,305.45c-.27.15-.31.38-.09.51l7.92,4.57c.22.13.18.35-.08.51l-5.8,3.35c-.27.15-.31.38-.09.5l5.54,3.2A1,1,0,0,0,241.29,318Zm-41.64-3.39-6.28,3.62c-.27.16-.31.38-.09.51l5.54,3.2a1,1,0,0,0,.88-.05L206,318.3c.27-.15.31-.38.09-.51l-5.54-3.2A1,1,0,0,0,199.65,314.65Zm-9.18,5.3-6.28,3.62c-.27.16-.31.38-.09.51l5.54,3.2a1,1,0,0,0,.88,0l6.28-3.63c.27-.15.31-.38.09-.51l-5.54-3.19A1,1,0,0,0,190.47,320ZM139.42,376.4a1,1,0,0,0,.88,0l6.28-3.63c.27-.15.31-.38.09-.51l-5.54-3.2a1,1,0,0,0-.88.06L134,372.69c-.27.16-.31.38-.09.51Zm-22.4-14L110.74,366c-.26.15-.3.38-.09.5l5.55,3.2a.93.93,0,0,0,.87-.05l6.29-3.62c.26-.16.3-.38.08-.51l-5.54-3.2A1,1,0,0,0,117,362.35Zm11.27,10.41a1,1,0,0,0,.88-.05l6.28-3.62c.27-.16.31-.39.09-.51l-5.54-3.2a1,1,0,0,0-.88.05l-6.28,3.63c-.27.15-.31.38-.09.5Zm25.56,5.83,6.28-3.63c.27-.15.31-.38.09-.5l-5.54-3.2a1,1,0,0,0-.88.05l-6.28,3.62c-.27.16-.31.38-.09.51l5.54,3.2A1,1,0,0,0,153.85,378.59Zm-10.06,5.35a1,1,0,0,0,.88-.05l6.28-3.63c.27-.15.3-.38.09-.5l-5.55-3.2a.93.93,0,0,0-.87.05l-6.29,3.62c-.26.16-.3.39-.08.51ZM126.2,357.05l-6.28,3.63c-.26.15-.3.38-.08.5l5.54,3.2a1,1,0,0,0,.88-.05l6.28-3.62c.26-.16.3-.38.08-.51l-5.54-3.2A1,1,0,0,0,126.2,357.05Zm45.91-26.5-6.28,3.62c-.27.16-.31.39-.09.51l5.54,3.2a1,1,0,0,0,.88-.05l6.28-3.63c.27-.15.31-.38.09-.5L173,330.5A1,1,0,0,0,172.11,330.55Zm-36.72,21.2-6.29,3.63c-.26.15-.3.38-.08.5l5.54,3.2a1,1,0,0,0,.88-.05l6.28-3.62c.27-.16.3-.39.09-.51l-5.55-3.2A1,1,0,0,0,135.39,351.75Zm45.9-26.5L175,328.87c-.27.16-.31.38-.09.51l5.54,3.2a1,1,0,0,0,.88-.05l6.28-3.63c.27-.15.31-.38.09-.5l-5.54-3.2A1,1,0,0,0,181.29,325.25Zm-18.36,10.6-6.28,3.62c-.27.16-.31.39-.09.51l5.54,3.2a1,1,0,0,0,.88-.05l6.28-3.63c.27-.15.31-.38.09-.5l-5.54-3.2A1,1,0,0,0,162.93,335.85Zm-9.18,5.3-6.28,3.63c-.27.15-.31.38-.09.5l5.54,3.2a1,1,0,0,0,.88-.05l6.28-3.63c.27-.15.31-.38.09-.5l-5.54-3.2A1,1,0,0,0,153.75,341.15Zm-9.18,5.3-6.29,3.63c-.26.15-.3.38-.08.5l5.54,3.2a1,1,0,0,0,.88,0l6.28-3.63c.27-.15.3-.38.09-.5l-5.54-3.2A1,1,0,0,0,144.57,346.45Zm41.64,3.4,6.28-3.63c.26-.16.3-.38.09-.51l-5.55-3.2a1,1,0,0,0-.88.05l-6.28,3.63c-.26.15-.3.38-.08.51l5.54,3.2A1,1,0,0,0,186.21,349.85Zm85.92-77.05-6.28,3.63c-.27.15-.31.38-.09.5l5.54,3.2a1,1,0,0,0,.88-.05l6.28-3.63c.27-.15.31-.38.09-.5l-5.54-3.2A1,1,0,0,0,272.13,272.8ZM261,279.22l-6.28,3.62c-.27.16-.31.38-.09.51l5.54,3.2a1,1,0,0,0,.88-.05l6.28-3.63c.27-.15.31-.38.09-.51l-5.54-3.2A1,1,0,0,0,261,279.22Zm20.29-11.72L275,271.12c-.27.16-.3.39-.09.51l5.55,3.2a.93.93,0,0,0,.87-.05l6.29-3.63c.26-.15.3-.38.08-.5l-5.54-3.2A1,1,0,0,0,281.31,267.5Zm-51.15,46.91,6.28-3.63c.27-.16.31-.38.09-.51l-5.54-3.2a1,1,0,0,0-.88.05l-6.28,3.63c-.27.15-.31.38-.09.51l5.54,3.2A1,1,0,0,0,230.16,314.41Zm61.21-52.26a1,1,0,0,0-.88.05l-6.28,3.62c-.26.16-.3.39-.08.51l5.54,3.2a1,1,0,0,0,.87,0l6.29-3.63c.26-.15.3-.38.08-.5Zm-96,82.39,6.28-3.62c.27-.16.3-.38.09-.51l-5.55-3.2a1,1,0,0,0-.87.05l-6.29,3.63c-.26.15-.3.38-.08.51l5.54,3.2A1,1,0,0,0,195.39,344.54Zm112.58-65,6.29-3.62c.26-.16.3-.39.08-.51l-5.54-3.2a1,1,0,0,0-.88.05l-6.28,3.63c-.27.15-.31.38-.09.5l5.54,3.2A1,1,0,0,0,308,279.54Zm-17.89.27,6.28-3.62c.27-.16.31-.39.09-.51l-5.54-3.2a1,1,0,0,0-.88,0l-6.28,3.63c-.27.15-.31.38-.09.5l5.54,3.2A1,1,0,0,0,290.08,279.81Zm10-12.63a1,1,0,0,0-.88.05l-6.28,3.63c-.27.15-.31.38-.09.5l5.54,3.2a1,1,0,0,0,.88-.05l6.28-3.62c.27-.16.31-.39.09-.51Zm1.93-1.12,14.26,8.23a.93.93,0,0,0,.87-.05l6.29-3.62c.26-.16.3-.39.08-.51l-14.25-8.23a1,1,0,0,0-.88.05l-6.28,3.62C301.84,265.71,301.8,265.94,302,266.06Zm-21.17,11.77-6.29,3.63c-.26.15-.3.38-.08.5l5.54,3.2a1,1,0,0,0,.88-.05l6.28-3.62c.27-.16.31-.39.09-.51l-5.54-3.2A1,1,0,0,0,280.85,277.83Zm-69.1,39.89-6.28,3.63c-.27.15-.31.38-.09.51l5.54,3.2a1,1,0,0,0,.88-.05l6.28-3.63c.27-.15.31-.38.09-.51l-5.54-3.2A1,1,0,0,0,211.75,317.72Zm86.16-32.83a1,1,0,0,0,.88-.05l6.28-3.62c.27-.16.31-.38.09-.51l-5.54-3.2a1,1,0,0,0-.88.05l-6.28,3.63c-.27.15-.31.38-.09.5Zm-77,27.53-6.28,3.63c-.27.15-.31.38-.09.51l5.54,3.2a1,1,0,0,0,.88-.05l6.28-3.63c.27-.15.31-.38.09-.51l-5.54-3.2A1,1,0,0,0,220.93,312.42ZM148.6,371.1a1,1,0,0,0,.88-.05l6.28-3.63c.27-.15.31-.38.09-.51l-5.54-3.2a1,1,0,0,0-.88.05l-6.28,3.63c-.27.16-.31.38-.09.51Zm-10.3-11L132,363.76c-.27.15-.31.38-.09.5l5.54,3.2a1,1,0,0,0,.88,0l6.28-3.63c.27-.15.31-.38.09-.5l-5.54-3.2A1,1,0,0,0,138.3,360.13Zm20.36,5.62,6.28-3.63c.27-.15.31-.38.09-.51l-5.54-3.2a1,1,0,0,0-.88,0l-6.28,3.63c-.27.15-.31.38-.09.51l5.54,3.2A1,1,0,0,0,158.66,365.75Zm9.18-5.3,6.29-3.63c.26-.15.3-.38.08-.51l-5.54-3.2a1,1,0,0,0-.88.05l-6.28,3.63c-.27.15-.3.38-.09.51l5.55,3.2A1,1,0,0,0,167.84,360.45Zm9.19-5.3,6.28-3.63c.26-.16.3-.38.08-.51l-5.54-3.2a1,1,0,0,0-.88.05l-6.28,3.63c-.26.15-.3.38-.08.51l5.54,3.2A1,1,0,0,0,177,355.15Zm-29.55-.32-6.28,3.62c-.27.16-.31.39-.09.51l5.54,3.2a1,1,0,0,0,.88-.05l6.28-3.63c.27-.15.31-.38.09-.5l-5.54-3.2A1,1,0,0,0,147.48,354.83Zm9.18-5.3-6.28,3.62c-.27.16-.3.38-.09.51l5.55,3.2a1,1,0,0,0,.87-.05l6.29-3.63c.26-.15.3-.38.08-.5l-5.54-3.2A1,1,0,0,0,156.66,349.53Zm36.73-21.2L187.1,332c-.26.16-.3.38-.08.51l5.54,3.2a1,1,0,0,0,.88-.05l6.28-3.63c.27-.15.3-.38.09-.51l-5.54-3.2A1,1,0,0,0,193.39,328.33Zm-9.18,5.3-6.29,3.62c-.26.16-.3.38-.08.51l5.54,3.2a1,1,0,0,0,.88,0l6.28-3.63c.27-.15.3-.38.09-.51l-5.55-3.2A1,1,0,0,0,184.21,333.63ZM202.57,323l-6.28,3.63c-.27.16-.31.38-.09.51l5.54,3.2a1,1,0,0,0,.88-.05l6.28-3.63c.27-.15.31-.38.09-.51l-5.54-3.2A1,1,0,0,0,202.57,323Zm-36.73,21.21-6.28,3.62c-.26.16-.3.38-.09.51l5.55,3.2a1,1,0,0,0,.88-.05l6.28-3.63c.26-.15.3-.38.08-.5l-5.54-3.2A1,1,0,0,0,165.84,344.23Zm9.18-5.3-6.28,3.62c-.26.16-.3.38-.08.51l5.54,3.2a1,1,0,0,0,.88-.05l6.28-3.63c.26-.15.3-.38.08-.51l-5.54-3.19A1,1,0,0,0,175,338.93Zm-12,34.36,6.28-3.63c.27-.15.31-.38.09-.51L163.86,366a1,1,0,0,0-.88.05l-6.28,3.62c-.27.16-.31.38-.09.51l5.54,3.2A1,1,0,0,0,163,373.29Zm-48.77-2.49-5.54-3.2a1,1,0,0,0-.88,0l-6.28,3.63c-.27.15-.3.38-.09.51L107,375a1,1,0,0,0,.88-.05l6.29-3.62C114.44,371.15,114.48,370.93,114.26,370.8Zm12.1,3.08-5.54-3.2a1,1,0,0,0-.88.05l-9.66,5.58c-.27.15-.31.38-.09.51l5.54,3.2a1,1,0,0,0,.88,0l9.66-5.58C126.54,374.23,126.58,374,126.36,373.88Zm-20.26-9.46-5.54-3.2a.93.93,0,0,0-.87,0L92,365.73c-.26.16-.3.38-.08.51l5.54,3.2a1,1,0,0,0,.88-.05l7.73-4.47C106.28,364.77,106.32,364.54,106.1,364.42ZM112,361a1,1,0,0,0,.88-.05l6.28-3.62c.27-.16.31-.38.09-.51l-5.54-3.2a1,1,0,0,0-.88.05l-6.28,3.63c-.27.15-.31.38-.09.5Zm25.46,16.52L132,374.32a1,1,0,0,0-.88.05l-12.08,7c-.27.15-.31.38-.09.51l5.54,3.2a1,1,0,0,0,.88-.05l12.08-7C137.67,377.87,137.71,377.64,137.49,377.51Zm4.37,7.55-5.55-3.2a.93.93,0,0,0-.87.05l-7.74,4.46c-.26.16-.3.38-.08.51l5.54,3.2A1,1,0,0,0,134,390l7.73-4.47C142,385.41,142.07,385.18,141.86,385.06Zm38.43-63.48a1,1,0,0,0,.88-.05l6.28-3.62c.27-.16.31-.38.09-.51L182,314.2a1,1,0,0,0-.88.05l-6.28,3.63c-.27.15-.31.38-.09.5Zm-18.36,10.61a1,1,0,0,0,.88-.06l6.28-3.62c.27-.16.31-.38.09-.51l-5.54-3.2a1,1,0,0,0-.88.05l-6.28,3.63c-.27.15-.31.38-.09.51Zm-40.72,23.5a1,1,0,0,0,.88-.05l6.28-3.62c.27-.16.31-.38.09-.51l-5.54-3.2a1,1,0,0,0-.88.05L115.76,352c-.27.15-.31.38-.09.5Zm49.9-28.81a1,1,0,0,0,.88-.05l6.28-3.62c.27-.16.31-.38.09-.51l-5.54-3.2a1,1,0,0,0-.88.05l-6.28,3.63c-.27.15-.31.38-.09.51Zm-18.36,10.61a1,1,0,0,0,.88-.06l6.28-3.62c.27-.16.31-.38.09-.51l-5.54-3.2a1,1,0,0,0-.88,0l-6.28,3.63c-.27.15-.31.38-.09.51ZM147,385.77a1,1,0,0,0-.88.05l-9.66,5.58c-.27.16-.31.38-.09.51l5.54,3.2a1,1,0,0,0,.88-.05l9.67-5.58c.26-.15.3-.38.08-.51Zm-7.38-40.68a.93.93,0,0,0,.87,0l6.29-3.62c.26-.16.3-.39.08-.51l-5.54-3.2a1,1,0,0,0-.88.05l-6.28,3.63c-.27.15-.3.38-.09.5Zm-9.19,5.3a1,1,0,0,0,.88-.05l6.28-3.62c.27-.16.31-.39.09-.51L132.1,343a1,1,0,0,0-.88.05l-6.28,3.63c-.27.15-.31.38-.09.5Zm186.66-62.82a1,1,0,0,0-.88.05l-15.46,8.93c-.27.15-.31.38-.09.51l5.54,3.2a1,1,0,0,0,.88-.05l15.46-8.93c.27-.16.31-.38.09-.51Zm-20.3,11.72a1,1,0,0,0-.87,0L289.59,303c-.26.15-.3.38-.08.5l5.54,3.2a1,1,0,0,0,.88-.05l6.28-3.62c.27-.16.3-.39.09-.51ZM172.21,368l6.28-3.63c.27-.15.31-.38.09-.51l-5.54-3.2a1,1,0,0,0-.88.06l-6.28,3.62c-.27.16-.31.38-.09.51l5.54,3.2A1,1,0,0,0,172.21,368Zm106.18-58.1a1,1,0,0,0-.88.05l-6.28,3.63c-.26.15-.3.38-.09.51l5.55,3.19a.93.93,0,0,0,.87,0l6.29-3.62c.26-.16.3-.38.08-.51Zm47.84-27.62a1,1,0,0,0-.88.05L319.07,286c-.27.15-.31.38-.09.51l5.54,3.2a1,1,0,0,0,.88-.05l6.28-3.63c.27-.16.31-.38.09-.51Zm14.72-2.1-14.25-8.23a1,1,0,0,0-.88.05l-6.28,3.63c-.27.15-.31.38-.09.5l14.25,8.24a1,1,0,0,0,.88-.05l6.28-3.63C341.13,280.52,341.17,280.3,341,280.17ZM244.09,329.7a1,1,0,0,0-.88.05l-7.73,4.46c-.27.16-.31.38-.09.51l5.54,3.2a1,1,0,0,0,.88-.05l7.73-4.47c.27-.15.31-.38.09-.5Zm23.19-13.39a1,1,0,0,0-.88.05l-9.66,5.58c-.27.15-.31.38-.09.5l5.54,3.2a1,1,0,0,0,.88-.05l9.66-5.58c.27-.15.31-.38.09-.5ZM222.82,342a1,1,0,0,0-.87,0l-51.71,29.85c-.26.16-.3.39-.08.51l5.54,3.2a1,1,0,0,0,.88-.05l51.7-29.85c.27-.15.3-.38.09-.51Zm-54.6,31.53a1,1,0,0,0-.88.05L159.61,378c-.27.16-.3.38-.09.51l5.55,3.2a1,1,0,0,0,.87-.05l7.74-4.47c.26-.15.3-.38.08-.5Zm65.23-37.66a.93.93,0,0,0-.87.05l-7.74,4.46c-.26.15-.3.38-.08.51l5.54,3.2a1,1,0,0,0,.88-.05l7.73-4.47c.27-.15.3-.38.09-.51Zm-75.86,43.79a1,1,0,0,0-.88.06L149,384.15c-.27.15-.3.38-.09.51l5.55,3.2a1,1,0,0,0,.87-.05l7.74-4.47c.26-.15.3-.38.08-.51Zm97.13-56.07a1,1,0,0,0-.88.05l-7.73,4.46c-.27.16-.31.39-.09.51l5.54,3.2a1,1,0,0,0,.88,0l7.73-4.46c.27-.16.31-.38.09-.51Zm32.85-19a1,1,0,0,0-.88.05l-6.28,3.63c-.26.15-.3.38-.08.5l5.54,3.2a1,1,0,0,0,.88-.05L293,308.3c.26-.16.3-.38.08-.51Zm19.94-14.72,6.28-3.62c.27-.16.3-.38.09-.51l-5.55-3.2a1,1,0,0,0-.87,0l-6.29,3.63c-.26.15-.3.38-.08.51l5.54,3.19A1,1,0,0,0,307.51,289.87Zm-37.73,1.66,6.29-3.63c.26-.15.3-.38.08-.51l-5.54-3.19a1,1,0,0,0-.88.05l-6.28,3.62c-.27.16-.3.38-.09.51l5.54,3.2A1,1,0,0,0,269.78,291.53Zm-24.12,34.05L264,315c.27-.15.3-.38.09-.51l-5.55-3.19a.93.93,0,0,0-.87.05l-18.37,10.6c-.26.15-.3.38-.08.51l5.54,3.19A1,1,0,0,0,245.66,325.58Zm51.79-30.35a1,1,0,0,0,.88-.05l6.28-3.63c.26-.16.3-.38.08-.51l-5.54-3.2a1,1,0,0,0-.87.05L292,291.52c-.26.15-.3.38-.08.51Zm-7.84-5.09,6.28-3.62c.27-.16.31-.38.09-.51l-5.54-3.2a1,1,0,0,0-.88.05l-6.28,3.63c-.27.15-.31.38-.09.51l5.54,3.19A1,1,0,0,0,289.61,290.14Zm-53.13,40.74,6.28-3.62c.26-.16.3-.38.08-.51l-5.54-3.2a1,1,0,0,0-.88.05l-6.28,3.63c-.26.15-.3.38-.08.51l5.54,3.19A1,1,0,0,0,236.48,330.88Zm40.67-23.94a1,1,0,0,0,.88-.05l6.28-3.62c.27-.16.31-.39.09-.51l-5.54-3.2a1,1,0,0,0-.88.05l-6.28,3.63c-.27.15-.31.38-.09.5Zm-86.58,50.45,6.28-3.63c.27-.15.31-.38.09-.51l-5.54-3.2a1,1,0,0,0-.88.05l-6.28,3.63c-.27.16-.31.38-.09.51l5.54,3.2A1,1,0,0,0,190.57,357.39Zm9.18-5.3,6.28-3.63c.27-.15.31-.38.09-.51l-5.54-3.2a1,1,0,0,0-.88.05l-6.28,3.63c-.27.15-.31.38-.09.51l5.54,3.2A1,1,0,0,0,199.75,352.09Zm-18.36,10.6,6.28-3.63c.27-.15.31-.38.09-.51l-5.54-3.2a1,1,0,0,0-.88,0L175.06,359c-.27.16-.31.38-.09.51l5.54,3.2A1,1,0,0,0,181.39,362.69Zm36.72-21.2,6.29-3.63c.26-.16.3-.38.08-.51l-5.54-3.2a1,1,0,0,0-.88.05l-6.28,3.63c-.27.15-.3.38-.09.51l5.54,3.2A1,1,0,0,0,218.11,341.49Zm-9.18,5.3,6.28-3.63c.27-.15.31-.38.09-.51l-5.54-3.2a1,1,0,0,0-.88.05l-6.28,3.63c-.27.15-.31.38-.09.51l5.54,3.2A1,1,0,0,0,208.93,346.79Zm18.36-10.61,6.29-3.62c.26-.16.3-.38.08-.51l-5.54-3.2a1,1,0,0,0-.88,0L221,332.53c-.26.15-.3.38-.08.51l5.54,3.2A1,1,0,0,0,227.29,336.18ZM278,262.81a1,1,0,0,0,.87-.05l6.29-3.63c.26-.15.3-.38.08-.5l-1.47-.86a1,1,0,0,0-.88.05l-6.28,3.63c-.27.16-.31.38-.09.51ZM232.22,291.6a1,1,0,0,0,.88-.05l6.28-3.62c.27-.16.31-.39.09-.51l-5.54-3.2a1,1,0,0,0-.88,0l-6.28,3.63c-.27.15-.31.38-.09.5ZM250.58,281a1,1,0,0,0,.88-.05l6.28-3.63c.27-.15.31-.38.09-.5l-5.54-3.2a1,1,0,0,0-.88.05l-6.28,3.63c-.27.15-.31.38-.09.5ZM221,298.08a1,1,0,0,0,.88-.06l6.28-3.62c.27-.16.31-.38.09-.51l-5.54-3.2a1,1,0,0,0-.88.05l-6.28,3.63c-.27.15-.31.38-.09.51ZM241.4,286.3a1,1,0,0,0,.88-.05l6.28-3.62c.27-.16.31-.39.09-.51l-5.54-3.2a1,1,0,0,0-.88.05L236,282.6c-.27.15-.31.38-.09.5Zm-38.75,22.38a1,1,0,0,0,.88-.05l6.28-3.63c.27-.15.31-.38.09-.51l-5.54-3.2a1,1,0,0,0-.88,0L197.2,305c-.27.15-.31.38-.09.51Zm9.18-5.3a1,1,0,0,0,.88-.05L219,299.7c.27-.16.31-.38.09-.51l-5.54-3.2a1,1,0,0,0-.88.05l-6.28,3.63c-.27.15-.31.38-.09.51Zm47.83-30a1,1,0,0,0,.88-.05l6.28-3.63c.27-.15.31-.38.09-.5l-1.47-.85a1,1,0,0,0-.88.05l-6.28,3.62c-.27.16-.31.38-.09.51Zm27.55-15.9a1,1,0,0,0,.88-.05l6.28-3.63c.26-.15.3-.38.08-.5l-1.47-.86a1,1,0,0,0-.88.05l-6.28,3.63c-.27.15-.31.38-.09.51Zm11.64,6.72a1,1,0,0,0,.88-.05l6.28-3.63c.26-.15.3-.38.09-.5l-5.55-3.2a1,1,0,0,0-.88,0l-6.28,3.62c-.26.16-.3.39-.08.51Zm17.84,20.34L323,281c.27-.16.31-.38.09-.51l-5.54-3.2a1,1,0,0,0-.88.05l-6.29,3.63c-.26.15-.3.38-.08.51l5.54,3.19A1,1,0,0,0,316.69,284.57Zm-47.85-16.46a1,1,0,0,0,.88-.05l6.29-3.63c.26-.15.3-.38.08-.5l-1.47-.86a1,1,0,0,0-.88.06l-6.28,3.62c-.27.16-.31.38-.09.51ZM193.47,314a1,1,0,0,0,.88-.05l6.28-3.63c.27-.15.31-.38.09-.51l-5.54-3.2a1,1,0,0,0-.88.05L188,310.27c-.26.15-.3.38-.08.51Z" style="fill:#3FDFC8"></path><path d="M260.6,296.83l6.28-3.63c.27-.15.31-.38.09-.5l-5.54-3.2a1,1,0,0,0-.88.05l-6.28,3.62c-.27.16-.31.38-.09.51l5.54,3.2A1,1,0,0,0,260.6,296.83Zm-8.76-12.31-6.28,3.62c-.27.16-.31.38-.09.51l5.54,3.2a1,1,0,0,0,.88-.05l6.28-3.63c.27-.15.31-.38.09-.51l-5.54-3.19A1,1,0,0,0,251.84,284.52Zm-20.3,11.71-10.63,6.14c-.26.15-.3.38-.09.51l5.55,3.2a1,1,0,0,0,.88-.05l10.63-6.14c.26-.15.3-.38.08-.51l-5.54-3.2A1,1,0,0,0,231.54,296.23Zm11.12-6.41-6.29,3.62c-.26.16-.3.38-.08.51l5.54,3.2a1,1,0,0,0,.88,0l6.28-3.63c.27-.15.31-.38.09-.5l-5.54-3.2A1,1,0,0,0,242.66,289.82ZM218,304l-6.28,3.63c-.27.15-.3.38-.09.51l5.55,3.2a1,1,0,0,0,.87-.05l6.29-3.63c.26-.15.3-.38.08-.51l-5.54-3.2A1,1,0,0,0,218,304Zm-9.18,5.3L202.55,313c-.27.16-.31.38-.09.51l5.54,3.2a1,1,0,0,0,.88-.05l6.29-3.63c.26-.15.3-.38.08-.51l-5.54-3.2A1,1,0,0,0,208.83,309.34Zm23.28,14,6.28-3.62c.27-.16.31-.39.09-.51l-5.54-3.2a1,1,0,0,0-.88.05l-6.28,3.63c-.27.15-.31.38-.09.5l5.54,3.2A1,1,0,0,0,232.11,323.34Zm-9.18,5.3,6.28-3.62c.27-.16.31-.38.09-.51l-5.54-3.2a1,1,0,0,0-.88.05L216.6,325c-.27.15-.31.38-.09.5l5.54,3.2A1,1,0,0,0,222.93,328.64Zm-9.18,5.3,6.28-3.62c.27-.16.31-.38.09-.51l-5.54-3.2a1,1,0,0,0-.88.05l-6.28,3.63c-.27.15-.31.38-.09.5l5.54,3.2A1,1,0,0,0,213.75,333.94Zm-9.18,5.3,6.28-3.62c.27-.16.31-.38.09-.51l-5.54-3.2a1,1,0,0,0-.88,0l-6.28,3.63c-.27.15-.31.38-.09.51l5.54,3.19A1,1,0,0,0,204.57,339.24Zm46.85-37.11,6.28-3.63c.27-.15.31-.38.09-.5l-5.54-3.2a1,1,0,0,0-.88.05l-6.28,3.62c-.27.16-.31.39-.09.51l5.54,3.2A1,1,0,0,0,251.42,302.13ZM241.29,318l14-8.09c.27-.15.31-.38.09-.51l-14.25-8.23a1,1,0,0,0-.88.05L233,305.45c-.27.15-.31.38-.09.51l7.92,4.57c.22.13.18.35-.08.51l-5.8,3.35c-.27.15-.31.38-.09.5l5.54,3.2A1,1,0,0,0,241.29,318Zm-41.64-3.39-6.28,3.62c-.27.16-.31.38-.09.51l5.54,3.2a1,1,0,0,0,.88-.05L206,318.3c.27-.15.31-.38.09-.51l-5.54-3.2A1,1,0,0,0,199.65,314.65Zm-9.18,5.3-6.28,3.62c-.27.16-.31.38-.09.51l5.54,3.2a1,1,0,0,0,.88,0l6.28-3.63c.27-.15.31-.38.09-.51l-5.54-3.19A1,1,0,0,0,190.47,320ZM139.42,376.4a1,1,0,0,0,.88,0l6.28-3.63c.27-.15.31-.38.09-.51l-5.54-3.2a1,1,0,0,0-.88.06L134,372.69c-.27.16-.31.38-.09.51Zm-22.4-14L110.74,366c-.26.15-.3.38-.09.5l5.55,3.2a.93.93,0,0,0,.87-.05l6.29-3.62c.26-.16.3-.38.08-.51l-5.54-3.2A1,1,0,0,0,117,362.35Zm11.27,10.41a1,1,0,0,0,.88-.05l6.28-3.62c.27-.16.31-.39.09-.51l-5.54-3.2a1,1,0,0,0-.88.05l-6.28,3.63c-.27.15-.31.38-.09.5Zm25.56,5.83,6.28-3.63c.27-.15.31-.38.09-.5l-5.54-3.2a1,1,0,0,0-.88.05l-6.28,3.62c-.27.16-.31.38-.09.51l5.54,3.2A1,1,0,0,0,153.85,378.59Zm-10.06,5.35a1,1,0,0,0,.88-.05l6.28-3.63c.27-.15.3-.38.09-.5l-5.55-3.2a.93.93,0,0,0-.87.05l-6.29,3.62c-.26.16-.3.39-.08.51ZM126.2,357.05l-6.28,3.63c-.26.15-.3.38-.08.5l5.54,3.2a1,1,0,0,0,.88-.05l6.28-3.62c.26-.16.3-.38.08-.51l-5.54-3.2A1,1,0,0,0,126.2,357.05Zm45.91-26.5-6.28,3.62c-.27.16-.31.39-.09.51l5.54,3.2a1,1,0,0,0,.88-.05l6.28-3.63c.27-.15.31-.38.09-.5L173,330.5A1,1,0,0,0,172.11,330.55Zm-36.72,21.2-6.29,3.63c-.26.15-.3.38-.08.5l5.54,3.2a1,1,0,0,0,.88-.05l6.28-3.62c.27-.16.3-.39.09-.51l-5.55-3.2A1,1,0,0,0,135.39,351.75Zm45.9-26.5L175,328.87c-.27.16-.31.38-.09.51l5.54,3.2a1,1,0,0,0,.88-.05l6.28-3.63c.27-.15.31-.38.09-.5l-5.54-3.2A1,1,0,0,0,181.29,325.25Zm-18.36,10.6-6.28,3.62c-.27.16-.31.39-.09.51l5.54,3.2a1,1,0,0,0,.88-.05l6.28-3.63c.27-.15.31-.38.09-.5l-5.54-3.2A1,1,0,0,0,162.93,335.85Zm-9.18,5.3-6.28,3.63c-.27.15-.31.38-.09.5l5.54,3.2a1,1,0,0,0,.88-.05l6.28-3.63c.27-.15.31-.38.09-.5l-5.54-3.2A1,1,0,0,0,153.75,341.15Zm-9.18,5.3-6.29,3.63c-.26.15-.3.38-.08.5l5.54,3.2a1,1,0,0,0,.88,0l6.28-3.63c.27-.15.3-.38.09-.5l-5.54-3.2A1,1,0,0,0,144.57,346.45Zm41.64,3.4,6.28-3.63c.26-.16.3-.38.09-.51l-5.55-3.2a1,1,0,0,0-.88.05l-6.28,3.63c-.26.15-.3.38-.08.51l5.54,3.2A1,1,0,0,0,186.21,349.85Zm85.92-77.05-6.28,3.63c-.27.15-.31.38-.09.5l5.54,3.2a1,1,0,0,0,.88-.05l6.28-3.63c.27-.15.31-.38.09-.5l-5.54-3.2A1,1,0,0,0,272.13,272.8ZM261,279.22l-6.28,3.62c-.27.16-.31.38-.09.51l5.54,3.2a1,1,0,0,0,.88-.05l6.28-3.63c.27-.15.31-.38.09-.51l-5.54-3.2A1,1,0,0,0,261,279.22Zm20.29-11.72L275,271.12c-.27.16-.3.39-.09.51l5.55,3.2a.93.93,0,0,0,.87-.05l6.29-3.63c.26-.15.3-.38.08-.5l-5.54-3.2A1,1,0,0,0,281.31,267.5Zm-51.15,46.91,6.28-3.63c.27-.16.31-.38.09-.51l-5.54-3.2a1,1,0,0,0-.88.05l-6.28,3.63c-.27.15-.31.38-.09.51l5.54,3.2A1,1,0,0,0,230.16,314.41Zm61.21-52.26a1,1,0,0,0-.88.05l-6.28,3.62c-.26.16-.3.39-.08.51l5.54,3.2a1,1,0,0,0,.87,0l6.29-3.63c.26-.15.3-.38.08-.5Zm-96,82.39,6.28-3.62c.27-.16.3-.38.09-.51l-5.55-3.2a1,1,0,0,0-.87.05l-6.29,3.63c-.26.15-.3.38-.08.51l5.54,3.2A1,1,0,0,0,195.39,344.54Zm112.58-65,6.29-3.62c.26-.16.3-.39.08-.51l-5.54-3.2a1,1,0,0,0-.88.05l-6.28,3.63c-.27.15-.31.38-.09.5l5.54,3.2A1,1,0,0,0,308,279.54Zm-17.89.27,6.28-3.62c.27-.16.31-.39.09-.51l-5.54-3.2a1,1,0,0,0-.88,0l-6.28,3.63c-.27.15-.31.38-.09.5l5.54,3.2A1,1,0,0,0,290.08,279.81Zm10-12.63a1,1,0,0,0-.88.05l-6.28,3.63c-.27.15-.31.38-.09.5l5.54,3.2a1,1,0,0,0,.88-.05l6.28-3.62c.27-.16.31-.39.09-.51Zm1.93-1.12,14.26,8.23a.93.93,0,0,0,.87-.05l6.29-3.62c.26-.16.3-.39.08-.51l-14.25-8.23a1,1,0,0,0-.88.05l-6.28,3.62C301.84,265.71,301.8,265.94,302,266.06Zm-21.17,11.77-6.29,3.63c-.26.15-.3.38-.08.5l5.54,3.2a1,1,0,0,0,.88-.05l6.28-3.62c.27-.16.31-.39.09-.51l-5.54-3.2A1,1,0,0,0,280.85,277.83Zm-69.1,39.89-6.28,3.63c-.27.15-.31.38-.09.51l5.54,3.2a1,1,0,0,0,.88-.05l6.28-3.63c.27-.15.31-.38.09-.51l-5.54-3.2A1,1,0,0,0,211.75,317.72Zm86.16-32.83a1,1,0,0,0,.88-.05l6.28-3.62c.27-.16.31-.38.09-.51l-5.54-3.2a1,1,0,0,0-.88.05l-6.28,3.63c-.27.15-.31.38-.09.5Zm-77,27.53-6.28,3.63c-.27.15-.31.38-.09.51l5.54,3.2a1,1,0,0,0,.88-.05l6.28-3.63c.27-.15.31-.38.09-.51l-5.54-3.2A1,1,0,0,0,220.93,312.42ZM148.6,371.1a1,1,0,0,0,.88-.05l6.28-3.63c.27-.15.31-.38.09-.51l-5.54-3.2a1,1,0,0,0-.88.05l-6.28,3.63c-.27.16-.31.38-.09.51Zm-10.3-11L132,363.76c-.27.15-.31.38-.09.5l5.54,3.2a1,1,0,0,0,.88,0l6.28-3.63c.27-.15.31-.38.09-.5l-5.54-3.2A1,1,0,0,0,138.3,360.13Zm20.36,5.62,6.28-3.63c.27-.15.31-.38.09-.51l-5.54-3.2a1,1,0,0,0-.88,0l-6.28,3.63c-.27.15-.31.38-.09.51l5.54,3.2A1,1,0,0,0,158.66,365.75Zm9.18-5.3,6.29-3.63c.26-.15.3-.38.08-.51l-5.54-3.2a1,1,0,0,0-.88.05l-6.28,3.63c-.27.15-.3.38-.09.51l5.55,3.2A1,1,0,0,0,167.84,360.45Zm9.19-5.3,6.28-3.63c.26-.16.3-.38.08-.51l-5.54-3.2a1,1,0,0,0-.88.05l-6.28,3.63c-.26.15-.3.38-.08.51l5.54,3.2A1,1,0,0,0,177,355.15Zm-29.55-.32-6.28,3.62c-.27.16-.31.39-.09.51l5.54,3.2a1,1,0,0,0,.88-.05l6.28-3.63c.27-.15.31-.38.09-.5l-5.54-3.2A1,1,0,0,0,147.48,354.83Zm9.18-5.3-6.28,3.62c-.27.16-.3.38-.09.51l5.55,3.2a1,1,0,0,0,.87-.05l6.29-3.63c.26-.15.3-.38.08-.5l-5.54-3.2A1,1,0,0,0,156.66,349.53Zm36.73-21.2L187.1,332c-.26.16-.3.38-.08.51l5.54,3.2a1,1,0,0,0,.88-.05l6.28-3.63c.27-.15.3-.38.09-.51l-5.54-3.2A1,1,0,0,0,193.39,328.33Zm-9.18,5.3-6.29,3.62c-.26.16-.3.38-.08.51l5.54,3.2a1,1,0,0,0,.88,0l6.28-3.63c.27-.15.3-.38.09-.51l-5.55-3.2A1,1,0,0,0,184.21,333.63ZM202.57,323l-6.28,3.63c-.27.16-.31.38-.09.51l5.54,3.2a1,1,0,0,0,.88-.05l6.28-3.63c.27-.15.31-.38.09-.51l-5.54-3.2A1,1,0,0,0,202.57,323Zm-36.73,21.21-6.28,3.62c-.26.16-.3.38-.09.51l5.55,3.2a1,1,0,0,0,.88-.05l6.28-3.63c.26-.15.3-.38.08-.5l-5.54-3.2A1,1,0,0,0,165.84,344.23Zm9.18-5.3-6.28,3.62c-.26.16-.3.38-.08.51l5.54,3.2a1,1,0,0,0,.88-.05l6.28-3.63c.26-.15.3-.38.08-.51l-5.54-3.19A1,1,0,0,0,175,338.93Zm-12,34.36,6.28-3.63c.27-.15.31-.38.09-.51L163.86,366a1,1,0,0,0-.88.05l-6.28,3.62c-.27.16-.31.38-.09.51l5.54,3.2A1,1,0,0,0,163,373.29Zm-48.77-2.49-5.54-3.2a1,1,0,0,0-.88,0l-6.28,3.63c-.27.15-.3.38-.09.51L107,375a1,1,0,0,0,.88-.05l6.29-3.62C114.44,371.15,114.48,370.93,114.26,370.8Zm12.1,3.08-5.54-3.2a1,1,0,0,0-.88.05l-9.66,5.58c-.27.15-.31.38-.09.51l5.54,3.2a1,1,0,0,0,.88,0l9.66-5.58C126.54,374.23,126.58,374,126.36,373.88Zm-20.26-9.46-5.54-3.2a.93.93,0,0,0-.87,0L92,365.73c-.26.16-.3.38-.08.51l5.54,3.2a1,1,0,0,0,.88-.05l7.73-4.47C106.28,364.77,106.32,364.54,106.1,364.42ZM112,361a1,1,0,0,0,.88-.05l6.28-3.62c.27-.16.31-.38.09-.51l-5.54-3.2a1,1,0,0,0-.88.05l-6.28,3.63c-.27.15-.31.38-.09.5Zm25.46,16.52L132,374.32a1,1,0,0,0-.88.05l-12.08,7c-.27.15-.31.38-.09.51l5.54,3.2a1,1,0,0,0,.88-.05l12.08-7C137.67,377.87,137.71,377.64,137.49,377.51Zm4.37,7.55-5.55-3.2a.93.93,0,0,0-.87.05l-7.74,4.46c-.26.16-.3.38-.08.51l5.54,3.2A1,1,0,0,0,134,390l7.73-4.47C142,385.41,142.07,385.18,141.86,385.06Zm38.43-63.48a1,1,0,0,0,.88-.05l6.28-3.62c.27-.16.31-.38.09-.51L182,314.2a1,1,0,0,0-.88.05l-6.28,3.63c-.27.15-.31.38-.09.5Zm-18.36,10.61a1,1,0,0,0,.88-.06l6.28-3.62c.27-.16.31-.38.09-.51l-5.54-3.2a1,1,0,0,0-.88.05l-6.28,3.63c-.27.15-.31.38-.09.51Zm-40.72,23.5a1,1,0,0,0,.88-.05l6.28-3.62c.27-.16.31-.38.09-.51l-5.54-3.2a1,1,0,0,0-.88.05L115.76,352c-.27.15-.31.38-.09.5Zm49.9-28.81a1,1,0,0,0,.88-.05l6.28-3.62c.27-.16.31-.38.09-.51l-5.54-3.2a1,1,0,0,0-.88.05l-6.28,3.63c-.27.15-.31.38-.09.51Zm-18.36,10.61a1,1,0,0,0,.88-.06l6.28-3.62c.27-.16.31-.38.09-.51l-5.54-3.2a1,1,0,0,0-.88,0l-6.28,3.63c-.27.15-.31.38-.09.51ZM147,385.77a1,1,0,0,0-.88.05l-9.66,5.58c-.27.16-.31.38-.09.51l5.54,3.2a1,1,0,0,0,.88-.05l9.67-5.58c.26-.15.3-.38.08-.51Zm-7.38-40.68a.93.93,0,0,0,.87,0l6.29-3.62c.26-.16.3-.39.08-.51l-5.54-3.2a1,1,0,0,0-.88.05l-6.28,3.63c-.27.15-.3.38-.09.5Zm-9.19,5.3a1,1,0,0,0,.88-.05l6.28-3.62c.27-.16.31-.39.09-.51L132.1,343a1,1,0,0,0-.88.05l-6.28,3.63c-.27.15-.31.38-.09.5Zm186.66-62.82a1,1,0,0,0-.88.05l-15.46,8.93c-.27.15-.31.38-.09.51l5.54,3.2a1,1,0,0,0,.88-.05l15.46-8.93c.27-.16.31-.38.09-.51Zm-20.3,11.72a1,1,0,0,0-.87,0L289.59,303c-.26.15-.3.38-.08.5l5.54,3.2a1,1,0,0,0,.88-.05l6.28-3.62c.27-.16.3-.39.09-.51ZM172.21,368l6.28-3.63c.27-.15.31-.38.09-.51l-5.54-3.2a1,1,0,0,0-.88.06l-6.28,3.62c-.27.16-.31.38-.09.51l5.54,3.2A1,1,0,0,0,172.21,368Zm106.18-58.1a1,1,0,0,0-.88.05l-6.28,3.63c-.26.15-.3.38-.09.51l5.55,3.19a.93.93,0,0,0,.87,0l6.29-3.62c.26-.16.3-.38.08-.51Zm47.84-27.62a1,1,0,0,0-.88.05L319.07,286c-.27.15-.31.38-.09.51l5.54,3.2a1,1,0,0,0,.88-.05l6.28-3.63c.27-.16.31-.38.09-.51Zm14.72-2.1-14.25-8.23a1,1,0,0,0-.88.05l-6.28,3.63c-.27.15-.31.38-.09.5l14.25,8.24a1,1,0,0,0,.88-.05l6.28-3.63C341.13,280.52,341.17,280.3,341,280.17ZM244.09,329.7a1,1,0,0,0-.88.05l-7.73,4.46c-.27.16-.31.38-.09.51l5.54,3.2a1,1,0,0,0,.88-.05l7.73-4.47c.27-.15.31-.38.09-.5Zm23.19-13.39a1,1,0,0,0-.88.05l-9.66,5.58c-.27.15-.31.38-.09.5l5.54,3.2a1,1,0,0,0,.88-.05l9.66-5.58c.27-.15.31-.38.09-.5ZM222.82,342a1,1,0,0,0-.87,0l-51.71,29.85c-.26.16-.3.39-.08.51l5.54,3.2a1,1,0,0,0,.88-.05l51.7-29.85c.27-.15.3-.38.09-.51Zm-54.6,31.53a1,1,0,0,0-.88.05L159.61,378c-.27.16-.3.38-.09.51l5.55,3.2a1,1,0,0,0,.87-.05l7.74-4.47c.26-.15.3-.38.08-.5Zm65.23-37.66a.93.93,0,0,0-.87.05l-7.74,4.46c-.26.15-.3.38-.08.51l5.54,3.2a1,1,0,0,0,.88-.05l7.73-4.47c.27-.15.3-.38.09-.51Zm-75.86,43.79a1,1,0,0,0-.88.06L149,384.15c-.27.15-.3.38-.09.51l5.55,3.2a1,1,0,0,0,.87-.05l7.74-4.47c.26-.15.3-.38.08-.51Zm97.13-56.07a1,1,0,0,0-.88.05l-7.73,4.46c-.27.16-.31.39-.09.51l5.54,3.2a1,1,0,0,0,.88,0l7.73-4.46c.27-.16.31-.38.09-.51Zm32.85-19a1,1,0,0,0-.88.05l-6.28,3.63c-.26.15-.3.38-.08.5l5.54,3.2a1,1,0,0,0,.88-.05L293,308.3c.26-.16.3-.38.08-.51Zm19.94-14.72,6.28-3.62c.27-.16.3-.38.09-.51l-5.55-3.2a1,1,0,0,0-.87,0l-6.29,3.63c-.26.15-.3.38-.08.51l5.54,3.19A1,1,0,0,0,307.51,289.87Zm-37.73,1.66,6.29-3.63c.26-.15.3-.38.08-.51l-5.54-3.19a1,1,0,0,0-.88.05l-6.28,3.62c-.27.16-.3.38-.09.51l5.54,3.2A1,1,0,0,0,269.78,291.53Zm-24.12,34.05L264,315c.27-.15.3-.38.09-.51l-5.55-3.19a.93.93,0,0,0-.87.05l-18.37,10.6c-.26.15-.3.38-.08.51l5.54,3.19A1,1,0,0,0,245.66,325.58Zm51.79-30.35a1,1,0,0,0,.88-.05l6.28-3.63c.26-.16.3-.38.08-.51l-5.54-3.2a1,1,0,0,0-.87.05L292,291.52c-.26.15-.3.38-.08.51Zm-7.84-5.09,6.28-3.62c.27-.16.31-.38.09-.51l-5.54-3.2a1,1,0,0,0-.88.05l-6.28,3.63c-.27.15-.31.38-.09.51l5.54,3.19A1,1,0,0,0,289.61,290.14Zm-53.13,40.74,6.28-3.62c.26-.16.3-.38.08-.51l-5.54-3.2a1,1,0,0,0-.88.05l-6.28,3.63c-.26.15-.3.38-.08.51l5.54,3.19A1,1,0,0,0,236.48,330.88Zm40.67-23.94a1,1,0,0,0,.88-.05l6.28-3.62c.27-.16.31-.39.09-.51l-5.54-3.2a1,1,0,0,0-.88.05l-6.28,3.63c-.27.15-.31.38-.09.5Zm-86.58,50.45,6.28-3.63c.27-.15.31-.38.09-.51l-5.54-3.2a1,1,0,0,0-.88.05l-6.28,3.63c-.27.16-.31.38-.09.51l5.54,3.2A1,1,0,0,0,190.57,357.39Zm9.18-5.3,6.28-3.63c.27-.15.31-.38.09-.51l-5.54-3.2a1,1,0,0,0-.88.05l-6.28,3.63c-.27.15-.31.38-.09.51l5.54,3.2A1,1,0,0,0,199.75,352.09Zm-18.36,10.6,6.28-3.63c.27-.15.31-.38.09-.51l-5.54-3.2a1,1,0,0,0-.88,0L175.06,359c-.27.16-.31.38-.09.51l5.54,3.2A1,1,0,0,0,181.39,362.69Zm36.72-21.2,6.29-3.63c.26-.16.3-.38.08-.51l-5.54-3.2a1,1,0,0,0-.88.05l-6.28,3.63c-.27.15-.3.38-.09.51l5.54,3.2A1,1,0,0,0,218.11,341.49Zm-9.18,5.3,6.28-3.63c.27-.15.31-.38.09-.51l-5.54-3.2a1,1,0,0,0-.88.05l-6.28,3.63c-.27.15-.31.38-.09.51l5.54,3.2A1,1,0,0,0,208.93,346.79Zm18.36-10.61,6.29-3.62c.26-.16.3-.38.08-.51l-5.54-3.2a1,1,0,0,0-.88,0L221,332.53c-.26.15-.3.38-.08.51l5.54,3.2A1,1,0,0,0,227.29,336.18ZM278,262.81a1,1,0,0,0,.87-.05l6.29-3.63c.26-.15.3-.38.08-.5l-1.47-.86a1,1,0,0,0-.88.05l-6.28,3.63c-.27.16-.31.38-.09.51ZM232.22,291.6a1,1,0,0,0,.88-.05l6.28-3.62c.27-.16.31-.39.09-.51l-5.54-3.2a1,1,0,0,0-.88,0l-6.28,3.63c-.27.15-.31.38-.09.5ZM250.58,281a1,1,0,0,0,.88-.05l6.28-3.63c.27-.15.31-.38.09-.5l-5.54-3.2a1,1,0,0,0-.88.05l-6.28,3.63c-.27.15-.31.38-.09.5ZM221,298.08a1,1,0,0,0,.88-.06l6.28-3.62c.27-.16.31-.38.09-.51l-5.54-3.2a1,1,0,0,0-.88.05l-6.28,3.63c-.27.15-.31.38-.09.51ZM241.4,286.3a1,1,0,0,0,.88-.05l6.28-3.62c.27-.16.31-.39.09-.51l-5.54-3.2a1,1,0,0,0-.88.05L236,282.6c-.27.15-.31.38-.09.5Zm-38.75,22.38a1,1,0,0,0,.88-.05l6.28-3.63c.27-.15.31-.38.09-.51l-5.54-3.2a1,1,0,0,0-.88,0L197.2,305c-.27.15-.31.38-.09.51Zm9.18-5.3a1,1,0,0,0,.88-.05L219,299.7c.27-.16.31-.38.09-.51l-5.54-3.2a1,1,0,0,0-.88.05l-6.28,3.63c-.27.15-.31.38-.09.51Zm47.83-30a1,1,0,0,0,.88-.05l6.28-3.63c.27-.15.31-.38.09-.5l-1.47-.85a1,1,0,0,0-.88.05l-6.28,3.62c-.27.16-.31.38-.09.51Zm27.55-15.9a1,1,0,0,0,.88-.05l6.28-3.63c.26-.15.3-.38.08-.5l-1.47-.86a1,1,0,0,0-.88.05l-6.28,3.63c-.27.15-.31.38-.09.51Zm11.64,6.72a1,1,0,0,0,.88-.05l6.28-3.63c.26-.15.3-.38.09-.5l-5.55-3.2a1,1,0,0,0-.88,0l-6.28,3.62c-.26.16-.3.39-.08.51Zm17.84,20.34L323,281c.27-.16.31-.38.09-.51l-5.54-3.2a1,1,0,0,0-.88.05l-6.29,3.63c-.26.15-.3.38-.08.51l5.54,3.19A1,1,0,0,0,316.69,284.57Zm-47.85-16.46a1,1,0,0,0,.88-.05l6.29-3.63c.26-.15.3-.38.08-.5l-1.47-.86a1,1,0,0,0-.88.06l-6.28,3.62c-.27.16-.31.38-.09.51ZM193.47,314a1,1,0,0,0,.88-.05l6.28-3.63c.27-.15.31-.38.09-.51l-5.54-3.2a1,1,0,0,0-.88.05L188,310.27c-.26.15-.3.38-.08.51Z" style="opacity:0.1"></path><polygon points="221.58 361.39 222.87 362.13 257.08 381.88 317.92 346.75 319.18 346.03 283.68 325.54 221.58 361.39" style="opacity:0.4"></polygon><polygon points="222.87 362.13 257.08 381.88 317.92 346.75 283.68 327 222.87 362.13" style="fill:#3FDFC8"></polygon><polygon points="222.87 362.13 257.08 381.88 317.92 346.75 283.68 327 222.87 362.13" style="opacity:0.45"></polygon><path d="M46.15,355a8.75,8.75,0,0,0,1.73.74,7.69,7.69,0,0,1-1.73-.73,4.51,4.51,0,0,1-.54-.35C45.78,354.77,46,354.88,46.15,355Z" style="fill:#3FDFC8"></path><path d="M56,355.52s0,0,.09-.08l-.07.07Z" style="fill:#3FDFC8"></path></g></g><g id="freepik--Windows--inject-17"><g id="freepik--Window--inject-17"><g id="freepik--window--inject-17"><path d="M309.64,60.88a1.34,1.34,0,0,0-.07-.4s0,0,0-.08a2,2,0,0,0-.1-.39,1.85,1.85,0,0,0-.26-.55.68.68,0,0,0-.14-.23.65.65,0,0,0-.13-.16,1.48,1.48,0,0,0-.28-.28l0,0a1.68,1.68,0,0,0-.37-.21,3.16,3.16,0,0,0-2.92.37l-220.52,127a9.62,9.62,0,0,0-4.34,7.52V352.8A3,3,0,0,0,82,355.42l.18.11.22.13a1.77,1.77,0,0,0,.37.12,2.16,2.16,0,0,0,.56.08,2.8,2.8,0,0,0,1.44-.42l.11-.06h0L89.06,353,305.33,228.4a9.59,9.59,0,0,0,4.34-7.52V61.42A4.75,4.75,0,0,0,309.64,60.88Z" style="fill:#455a64"></path><path d="M308.25,58.55a3.16,3.16,0,0,0-2.92.37l-220.52,127a9.62,9.62,0,0,0-4.34,7.52v14.17l-5.54-3.25V190.26a9.58,9.58,0,0,1,4.33-7.5l220.54-127a3,3,0,0,1,3.14-.26C303.73,56,307.33,58.06,308.25,58.55Z" style="fill:#3FDFC8"></path><path d="M309.66,61.39c0-2.74-2-3.84-4.33-2.47L84.8,185.9a9.58,9.58,0,0,0-4.33,7.5v14.18l229.19-132Z" style="fill:#3FDFC8"></path><path d="M305.33,58.92,84.81,185.9a8.74,8.74,0,0,0-3,3.21l-5.51-3.19a8.73,8.73,0,0,1,3-3.16l220.54-127a3,3,0,0,1,3.14-.25c.78.47,4.38,2.52,5.29,3A3.12,3.12,0,0,0,305.33,58.92Z" style="fill:#fff;opacity:0.5"></path><path d="M74.93,204.35V190.26a8.89,8.89,0,0,1,1.32-4.34l5.52,3.18a8.69,8.69,0,0,0-1.3,4.31v14.17Z" style="opacity:0.15"></path><path d="M284,77.46c-1.35.78-2.45,3.1-2.45,5.18s1.1,3.14,2.45,2.36,2.45-3.1,2.45-5.19S285.38,76.68,284,77.46Z" style="fill:#fafafa"></path><path d="M292.85,72.36c-1.35.78-2.45,3.1-2.45,5.18s1.1,3.14,2.45,2.36,2.45-3.1,2.45-5.19S294.2,71.58,292.85,72.36Z" style="fill:#fafafa"></path><path d="M301.66,67.26c-1.35.78-2.44,3.1-2.44,5.18s1.09,3.14,2.44,2.36,2.45-3.1,2.45-5.19S303,66.48,301.66,67.26Z" style="fill:#fafafa"></path><path d="M82,355.42l-.24-.13-4.57-2.64A4.58,4.58,0,0,1,75,349.29a4.44,4.44,0,0,1,0-.63V204.33l5.54,3.25V352.79a2.94,2.94,0,0,0,1.38,2.51Z" style="fill:#37474f"></path></g><g id="freepik--Code--inject-17"><path d="M106.93,204.26l63.42-36.82c.85-.49,1.54-.15,1.54.78a3.29,3.29,0,0,1-1.54,2.55L106.93,207.6c-.85.49-1.54.14-1.54-.78A3.31,3.31,0,0,1,106.93,204.26Z" style="fill:#3FDFC8"></path><path d="M123.41,235.41l170.85-99.2c.85-.49,1.54-.14,1.54.78a3.32,3.32,0,0,1-1.54,2.56l-170.85,99.2c-.85.49-1.54.14-1.54-.78A3.32,3.32,0,0,1,123.41,235.41Z" style="fill:#3FDFC8"></path><path d="M123.41,247l170.85-99.21c.85-.49,1.54-.14,1.54.78a3.31,3.31,0,0,1-1.54,2.56L123.41,250.3c-.85.49-1.54.14-1.54-.78A3.29,3.29,0,0,1,123.41,247Z" style="fill:#3FDFC8"></path><path d="M176.32,164,295.2,95.44c.85-.49,1.54-.14,1.54.78a3.31,3.31,0,0,1-1.54,2.56L176.32,167.33c-.85.49-1.54.14-1.54-.78A3.31,3.31,0,0,1,176.32,164Z" style="fill:#3FDFC8"></path><path d="M106.93,213.85l33.39-19.51c.85-.49,1.54-.15,1.54.78a3.29,3.29,0,0,1-1.54,2.55l-33.39,19.51c-.85.49-1.54.15-1.54-.78A3.29,3.29,0,0,1,106.93,213.85Z" style="fill:#3FDFC8"></path><path d="M106.93,213.85l33.39-19.51c.85-.49,1.54-.15,1.54.78a3.29,3.29,0,0,1-1.54,2.55l-33.39,19.51c-.85.49-1.54.15-1.54-.78A3.29,3.29,0,0,1,106.93,213.85Z" style="fill:#fff;opacity:0.6000000000000001"></path><path d="M106.93,223.38,124.81,213c.85-.5,1.54-.15,1.54.77a3.29,3.29,0,0,1-1.54,2.56l-17.88,10.4c-.85.49-1.54.14-1.54-.78A3.29,3.29,0,0,1,106.93,223.38Z" style="fill:#3FDFC8"></path><path d="M106.93,223.38,124.81,213c.85-.5,1.54-.15,1.54.77a3.29,3.29,0,0,1-1.54,2.56l-17.88,10.4c-.85.49-1.54.14-1.54-.78A3.29,3.29,0,0,1,106.93,223.38Z" style="fill:#fff;opacity:0.6000000000000001"></path><path d="M146.29,190.89l18.28-10.52c.85-.49,1.54-.14,1.54.78a3.31,3.31,0,0,1-1.54,2.56l-18.28,10.52c-.85.49-1.54.14-1.54-.78A3.29,3.29,0,0,1,146.29,190.89Z" style="fill:#3FDFC8"></path><path d="M146.29,190.89l18.28-10.52c.85-.49,1.54-.14,1.54.78a3.31,3.31,0,0,1-1.54,2.56l-18.28,10.52c-.85.49-1.54.14-1.54-.78A3.29,3.29,0,0,1,146.29,190.89Z" style="fill:#fff;opacity:0.6000000000000001"></path><path d="M180,236.37,295.2,170c.85-.5,1.54-.15,1.54.77a3.29,3.29,0,0,1-1.54,2.56L180,239.71c-.85.49-1.54.14-1.54-.78A3.31,3.31,0,0,1,180,236.37Z" style="fill:#fff"></path><path d="M182.25,225.6l113-65.2c.85-.49,1.54-.14,1.54.78a3.31,3.31,0,0,1-1.54,2.56l-112.95,65.2c-.85.49-1.54.14-1.54-.78A3.31,3.31,0,0,1,182.25,225.6Z" style="fill:#fff"></path><path d="M134.62,253.49l41.66-24.44c.85-.49,1.54-.14,1.54.78a3.29,3.29,0,0,1-1.54,2.55l-41.66,24.45c-.85.49-1.54.14-1.54-.78A3.31,3.31,0,0,1,134.62,253.49Z" style="fill:#fff"></path><path d="M132.19,208.72l125.15-72.48c.85-.49,1.54-.14,1.54.78a3.31,3.31,0,0,1-1.54,2.56L132.19,212.06c-.85.49-1.54.14-1.54-.78A3.31,3.31,0,0,1,132.19,208.72Z" style="fill:#ebebeb"></path><path d="M264.08,132.39l30.21-17c.85-.49,1.54-.14,1.54.78a3.31,3.31,0,0,1-1.54,2.56l-30.21,17c-.85.49-1.54.14-1.54-.78A3.31,3.31,0,0,1,264.08,132.39Z" style="fill:#ebebeb"></path><path d="M117.28,228l46.16-27.21c.85-.49,1.54-.14,1.54.78a3.29,3.29,0,0,1-1.54,2.55l-46.16,27.21c-.85.49-1.54.14-1.54-.78A3.29,3.29,0,0,1,117.28,228Z" style="fill:#3FDFC8"></path><path d="M117.28,228l46.16-27.21c.85-.49,1.54-.14,1.54.78a3.29,3.29,0,0,1-1.54,2.55l-46.16,27.21c-.85.49-1.54.14-1.54-.78A3.29,3.29,0,0,1,117.28,228Z" style="fill:#fff;opacity:0.6000000000000001"></path><path d="M169.41,197.3l124.88-71.69c.85-.49,1.54-.14,1.54.78a3.32,3.32,0,0,1-1.54,2.56L169.41,200.64c-.85.49-1.54.14-1.54-.78A3.31,3.31,0,0,1,169.41,197.3Z" style="fill:#3FDFC8"></path><path d="M169.41,197.3l124.88-71.69c.85-.49,1.54-.14,1.54.78a3.32,3.32,0,0,1-1.54,2.56L169.41,200.64c-.85.49-1.54.14-1.54-.78A3.31,3.31,0,0,1,169.41,197.3Z" style="fill:#fff;opacity:0.6000000000000001"></path><path d="M117.28,282.9l177.92-103c.85-.49,1.54-.14,1.54.78a3.29,3.29,0,0,1-1.54,2.56L117.28,286.24c-.85.49-1.54.14-1.54-.78A3.31,3.31,0,0,1,117.28,282.9Z" style="fill:#ebebeb"></path><path d="M117.28,292.45l177.92-103c.85-.49,1.54-.14,1.54.78a3.31,3.31,0,0,1-1.54,2.56l-177.92,103c-.85.5-1.54.15-1.54-.77A3.29,3.29,0,0,1,117.28,292.45Z" style="fill:#ebebeb"></path><path d="M117.28,302,295.2,199c.85-.49,1.54-.14,1.54.78a3.31,3.31,0,0,1-1.54,2.56l-177.92,103c-.85.49-1.54.14-1.54-.78A3.29,3.29,0,0,1,117.28,302Z" style="fill:#ebebeb"></path><path d="M130.64,306.78l45.17-26.3c.85-.5,1.54-.15,1.54.77a3.29,3.29,0,0,1-1.54,2.56l-45.17,26.31c-.85.49-1.54.14-1.54-.78A3.31,3.31,0,0,1,130.64,306.78Z" style="fill:#3FDFC8"></path><path d="M181.78,276.91,295.2,211.65c.85-.49,1.54-.14,1.54.78A3.29,3.29,0,0,1,295.2,215L181.78,280.25c-.85.49-1.54.14-1.54-.78A3.32,3.32,0,0,1,181.78,276.91Z" style="fill:#3FDFC8"></path><path d="M108.31,319.56l14.25-8.24c.85-.49,1.54-.14,1.54.78a3.31,3.31,0,0,1-1.54,2.56l-14.25,8.24c-.85.49-1.54.14-1.54-.78A3.31,3.31,0,0,1,108.31,319.56Z" style="fill:#3FDFC8"></path><path d="M108.31,319.56l14.25-8.24c.85-.49,1.54-.14,1.54.78a3.31,3.31,0,0,1-1.54,2.56l-14.25,8.24c-.85.49-1.54.14-1.54-.78A3.31,3.31,0,0,1,108.31,319.56Z" style="fill:#fff;opacity:0.6000000000000001"></path><path d="M108.31,328.19,122.56,320c.85-.49,1.54-.14,1.54.78a3.31,3.31,0,0,1-1.54,2.56l-14.25,8.24c-.85.49-1.54.14-1.54-.78A3.32,3.32,0,0,1,108.31,328.19Z" style="fill:#3FDFC8"></path><path d="M108.31,328.19,122.56,320c.85-.49,1.54-.14,1.54.78a3.31,3.31,0,0,1-1.54,2.56l-14.25,8.24c-.85.49-1.54.14-1.54-.78A3.32,3.32,0,0,1,108.31,328.19Z" style="fill:#fff;opacity:0.6000000000000001"></path><path d="M130.69,315,295.2,220c.85-.49,1.54-.15,1.54.78a3.29,3.29,0,0,1-1.54,2.55L130.69,318.29c-.85.49-1.54.14-1.54-.78A3.32,3.32,0,0,1,130.69,315Z" style="fill:#fff"></path><path d="M89.88,334.07l8.38-4.84c.84-.48,1.52-.09,1.52.88v3.08a3.38,3.38,0,0,1-1.52,2.64l-8.38,4.84c-.84.48-1.52.09-1.52-.88v-3.08A3.39,3.39,0,0,1,89.88,334.07Z" style="fill:#e0e0e0"></path><path d="M89.88,297.32l8.38-4.84c.84-.48,1.52-.09,1.52.88v3.08a3.38,3.38,0,0,1-1.52,2.64l-8.38,4.83c-.84.49-1.52.1-1.52-.88V300A3.36,3.36,0,0,1,89.88,297.32Z" style="fill:#e0e0e0"></path><path d="M89.88,309.58l8.38-4.84c.84-.49,1.52-.09,1.52.88v3.08a3.35,3.35,0,0,1-1.52,2.63l-8.38,4.84c-.84.49-1.52.09-1.52-.88v-3.08A3.36,3.36,0,0,1,89.88,309.58Z" style="fill:#e0e0e0"></path><path d="M89.88,321.83,98.26,317c.84-.49,1.52-.1,1.52.87V321a3.36,3.36,0,0,1-1.52,2.64l-8.38,4.84c-.84.48-1.52.09-1.52-.88v-3.08A3.39,3.39,0,0,1,89.88,321.83Z" style="fill:#e0e0e0"></path><path d="M89.88,260.57l8.38-4.84c.84-.49,1.52-.09,1.52.88v3.08a3.35,3.35,0,0,1-1.52,2.63l-8.38,4.84c-.84.49-1.52.09-1.52-.88V263.2A3.36,3.36,0,0,1,89.88,260.57Z" style="fill:#e0e0e0"></path><path d="M89.88,272.82,98.26,268c.84-.48,1.52-.09,1.52.88v3.08a3.38,3.38,0,0,1-1.52,2.64l-8.38,4.84c-.84.48-1.52.09-1.52-.88v-3.08A3.39,3.39,0,0,1,89.88,272.82Z" style="fill:#e0e0e0"></path><path d="M89.88,285.08l8.38-4.84c.84-.48,1.52-.09,1.52.88v3.08a3.38,3.38,0,0,1-1.52,2.64l-8.38,4.83c-.84.49-1.52.1-1.52-.87v-3.08A3.39,3.39,0,0,1,89.88,285.08Z" style="fill:#e0e0e0"></path><path d="M89.88,223.81,98.26,219c.84-.48,1.52-.09,1.52.88v3.08a3.38,3.38,0,0,1-1.52,2.64l-8.38,4.84c-.84.48-1.52.09-1.52-.88v-3.08A3.39,3.39,0,0,1,89.88,223.81Z" style="fill:#e0e0e0"></path><path d="M89.88,236.07l8.38-4.84c.84-.48,1.52-.09,1.52.88v3.08a3.38,3.38,0,0,1-1.52,2.64l-8.38,4.83c-.84.49-1.52.1-1.52-.87v-3.08A3.39,3.39,0,0,1,89.88,236.07Z" style="fill:#e0e0e0"></path><path d="M89.88,248.33l8.38-4.84c.84-.49,1.52-.09,1.52.88v3.08a3.35,3.35,0,0,1-1.52,2.63l-8.38,4.84c-.84.49-1.52.09-1.52-.88V251A3.36,3.36,0,0,1,89.88,248.33Z" style="fill:#e0e0e0"></path><path d="M89.88,211.57l8.38-4.83c.84-.49,1.52-.1,1.52.87v3.08a3.35,3.35,0,0,1-1.52,2.64l-8.38,4.84c-.84.48-1.52.09-1.52-.88v-3.08A3.39,3.39,0,0,1,89.88,211.57Z" style="fill:#e0e0e0"></path></g></g><g id="freepik--window--inject-17"><path d="M373.85,86.87a1.76,1.76,0,0,0-.07-.4s0-.06,0-.09a1.91,1.91,0,0,0-.1-.38,2.37,2.37,0,0,0-.26-.56.74.74,0,0,0-.14-.22.51.51,0,0,0-.13-.16,1.24,1.24,0,0,0-.28-.28l0,0a2,2,0,0,0-.37-.22,3.16,3.16,0,0,0-2.92.37L149,211.88a9.59,9.59,0,0,0-4.33,7.51v159.4a3,3,0,0,0,1.56,2.62,1.08,1.08,0,0,1,.18.11l.23.12a1.63,1.63,0,0,0,.37.13,2.68,2.68,0,0,0,.56.07,2.73,2.73,0,0,0,1.43-.41l.12-.07h0l4.13-2.39L369.54,254.38a9.57,9.57,0,0,0,4.34-7.51V87.41A4.63,4.63,0,0,0,373.85,86.87Z" style="fill:#fafafa"></path><path d="M372.46,84.53a3.16,3.16,0,0,0-2.92.37L149,211.88a9.59,9.59,0,0,0-4.33,7.51v14.17l-5.54-3.24V216.25a9.58,9.58,0,0,1,4.33-7.5L364,81.77a3,3,0,0,1,3.14-.25C367.93,82,371.53,84.05,372.46,84.53Z" style="fill:#3FDFC8"></path><path d="M373.87,87.38c0-2.74-1.95-3.85-4.33-2.47L149,211.88a9.61,9.61,0,0,0-4.33,7.51v14.18l229.19-132Z" style="fill:#3FDFC8"></path><path d="M369.54,84.91,149,211.88A9,9,0,0,0,146,215.1l-5.5-3.19a8.5,8.5,0,0,1,3-3.16L364,81.77a3.07,3.07,0,0,1,3.15-.26c.78.48,4.38,2.53,5.29,3A3.12,3.12,0,0,0,369.54,84.91Z" style="fill:#fff;opacity:0.5"></path><path d="M139.13,230.34v-14.1a8.89,8.89,0,0,1,1.32-4.33l5.52,3.18a8.69,8.69,0,0,0-1.3,4.3v14.18Z" style="opacity:0.15"></path><path d="M348.24,103.44c-1.35.78-2.45,3.11-2.45,5.19s1.1,3.14,2.45,2.35,2.45-3.1,2.45-5.18S349.59,102.66,348.24,103.44Z" style="fill:#fafafa"></path><path d="M357.06,98.34c-1.36.79-2.45,3.11-2.45,5.19s1.09,3.14,2.45,2.36,2.44-3.11,2.44-5.19S358.41,97.56,357.06,98.34Z" style="fill:#fafafa"></path><path d="M365.87,93.24c-1.35.79-2.45,3.11-2.45,5.19s1.1,3.14,2.45,2.36,2.45-3.11,2.45-5.19S367.22,92.46,365.87,93.24Z" style="fill:#fafafa"></path><path d="M146.25,381.41l-.24-.13-4.57-2.64a4.55,4.55,0,0,1-2.26-3.36,4.46,4.46,0,0,1-.05-.63V230.32l5.54,3.25V378.78a3,3,0,0,0,1.39,2.51A1.25,1.25,0,0,1,146.25,381.41Z" style="fill:#e0e0e0"></path></g><g id="freepik--version-control--inject-17"><path d="M185.55,267.79V255.22c0-8.16,5.82-18.12,13-22.25l51.15-29.34c7.19-4.13,13-.92,13,7.16v12.42" style="fill:none;stroke:#455a64;stroke-linecap:round;stroke-linejoin:round"></path><line x1="165.24" y1="279.52" x2="352.09" y2="171.62" style="fill:none;stroke:#455a64;stroke-linecap:round;stroke-linejoin:round"></line><path d="M283,211.5V198.32c0-7.8,5.82-17.47,13-21.61l56.06-32.29" style="fill:none;stroke:#455a64;stroke-linecap:round;stroke-linejoin:round"></path><path d="M205.86,256.06V270.6c0,8,5.81,11.17,13,7l69.06-39.88c7.18-4.14,13-14,13-22V201.18" style="fill:none;stroke:#455a64;stroke-linecap:round;stroke-linejoin:round"></path><path d="M305.3,198.64v14.54c0,8,5.82,11.18,13,7L352,200.78" style="fill:none;stroke:#455a64;stroke-linecap:round;stroke-linejoin:round"></path><path d="M165.24,273.87c2.69-1.55,4.87-.29,4.87,2.82a10.79,10.79,0,0,1-4.87,8.44c-2.69,1.55-4.88.29-4.88-2.82A10.8,10.8,0,0,1,165.24,273.87Z" style="fill:#3FDFC8"></path><path d="M352.09,166c2.69-1.55,4.88-.29,4.88,2.82a10.8,10.8,0,0,1-4.88,8.44c-2.69,1.55-4.87.29-4.87-2.82A10.79,10.79,0,0,1,352.09,166Z" style="fill:#fff;opacity:0.5"></path><path d="M224.14,212.67c2.69-1.56,4.87-.3,4.87,2.81a10.76,10.76,0,0,1-4.87,8.44c-2.7,1.56-4.88.3-4.88-2.81A10.75,10.75,0,0,1,224.14,212.67Z" style="fill:#3FDFC8"></path><path d="M185.55,262.15c2.69-1.56,4.87-.3,4.87,2.81a10.76,10.76,0,0,1-4.87,8.44c-2.69,1.56-4.88.3-4.88-2.81A10.77,10.77,0,0,1,185.55,262.15Z" style="fill:#3FDFC8"></path><path d="M262.73,217.59c2.69-1.56,4.87-.3,4.87,2.81a10.76,10.76,0,0,1-4.87,8.44c-2.7,1.56-4.88.3-4.88-2.81A10.75,10.75,0,0,1,262.73,217.59Z" style="fill:#3FDFC8"></path><g style="opacity:0.35000000000000003"><path d="M224.14,212.67c2.69-1.56,4.87-.3,4.87,2.81a10.76,10.76,0,0,1-4.87,8.44c-2.7,1.56-4.88.3-4.88-2.81A10.75,10.75,0,0,1,224.14,212.67Z"></path><path d="M185.55,262.15c2.69-1.56,4.87-.3,4.87,2.81a10.76,10.76,0,0,1-4.87,8.44c-2.69,1.56-4.88.3-4.88-2.81A10.77,10.77,0,0,1,185.55,262.15Z"></path><path d="M262.73,217.59c2.69-1.56,4.87-.3,4.87,2.81a10.76,10.76,0,0,1-4.87,8.44c-2.7,1.56-4.88.3-4.88-2.81A10.75,10.75,0,0,1,262.73,217.59Z"></path></g><path d="M283,205.86c2.69-1.55,4.87-.29,4.87,2.81a10.79,10.79,0,0,1-4.87,8.45c-2.7,1.55-4.88.29-4.88-2.82A10.75,10.75,0,0,1,283,205.86Z" style="fill:#3FDFC8"></path><path d="M303.35,166.93c2.69-1.55,4.87-.29,4.87,2.82a10.76,10.76,0,0,1-4.87,8.44c-2.7,1.56-4.88.3-4.88-2.81A10.78,10.78,0,0,1,303.35,166.93Z" style="fill:#3FDFC8"></path><path d="M327.72,152.86c2.69-1.55,4.87-.29,4.87,2.82a10.76,10.76,0,0,1-4.87,8.44c-2.69,1.55-4.88.29-4.88-2.81A10.81,10.81,0,0,1,327.72,152.86Z" style="fill:#3FDFC8"></path><path d="M352.09,138.79c2.69-1.55,4.88-.29,4.88,2.82a10.8,10.8,0,0,1-4.88,8.44c-2.69,1.55-4.87.29-4.87-2.82A10.79,10.79,0,0,1,352.09,138.79Z" style="fill:#3FDFC8"></path><g style="opacity:0.15"><path d="M283,205.86c2.69-1.55,4.87-.29,4.87,2.81a10.79,10.79,0,0,1-4.87,8.45c-2.7,1.55-4.88.29-4.88-2.82A10.75,10.75,0,0,1,283,205.86Z"></path><path d="M303.35,166.93c2.69-1.55,4.87-.29,4.87,2.82a10.76,10.76,0,0,1-4.87,8.44c-2.7,1.56-4.88.3-4.88-2.81A10.78,10.78,0,0,1,303.35,166.93Z"></path><path d="M327.72,152.86c2.69-1.55,4.87-.29,4.87,2.82a10.76,10.76,0,0,1-4.87,8.44c-2.69,1.55-4.88.29-4.88-2.81A10.81,10.81,0,0,1,327.72,152.86Z"></path><path d="M352.09,138.79c2.69-1.55,4.88-.29,4.88,2.82a10.8,10.8,0,0,1-4.88,8.44c-2.69,1.55-4.87.29-4.87-2.82A10.79,10.79,0,0,1,352.09,138.79Z"></path></g><path d="M205.86,250.42c2.69-1.56,4.87-.3,4.87,2.81a10.79,10.79,0,0,1-4.87,8.45c-2.69,1.55-4.88.29-4.88-2.82A10.77,10.77,0,0,1,205.86,250.42Z" style="fill:#3FDFC8"></path><path d="M254.6,251.36c2.69-1.56,4.88-.3,4.88,2.81a10.77,10.77,0,0,1-4.88,8.44c-2.69,1.56-4.87.3-4.87-2.81A10.76,10.76,0,0,1,254.6,251.36Z" style="fill:#3FDFC8"></path><path d="M303.44,194.17c2.7-1.56,4.88-.3,4.88,2.81a10.78,10.78,0,0,1-4.88,8.45c-2.69,1.55-4.87.29-4.87-2.82A10.76,10.76,0,0,1,303.44,194.17Z" style="fill:#3FDFC8"></path><path d="M352.09,195.15c2.69-1.56,4.88-.3,4.88,2.81a10.81,10.81,0,0,1-4.88,8.45c-2.69,1.55-4.87.29-4.87-2.82A10.76,10.76,0,0,1,352.09,195.15Z" style="fill:#3FDFC8"></path><path d="M327.72,209.22c2.69-1.55,4.87-.29,4.87,2.81a10.79,10.79,0,0,1-4.87,8.45c-2.69,1.55-4.88.29-4.88-2.82A10.77,10.77,0,0,1,327.72,209.22Z" style="fill:#3FDFC8"></path><g style="opacity:0.5"><path d="M205.86,250.42c2.69-1.56,4.87-.3,4.87,2.81a10.79,10.79,0,0,1-4.87,8.45c-2.69,1.55-4.88.29-4.88-2.82A10.77,10.77,0,0,1,205.86,250.42Z" style="fill:#fff;opacity:0.5"></path><path d="M254.6,251.36c2.69-1.56,4.88-.3,4.88,2.81a10.77,10.77,0,0,1-4.88,8.44c-2.69,1.56-4.87.3-4.87-2.81A10.76,10.76,0,0,1,254.6,251.36Z" style="fill:#fff;opacity:0.5"></path><path d="M303.44,194.17c2.7-1.56,4.88-.3,4.88,2.81a10.78,10.78,0,0,1-4.88,8.45c-2.69,1.55-4.87.29-4.87-2.82A10.76,10.76,0,0,1,303.44,194.17Z" style="fill:#fff;opacity:0.5"></path><path d="M352.09,195.15c2.69-1.56,4.88-.3,4.88,2.81a10.81,10.81,0,0,1-4.88,8.45c-2.69,1.55-4.87.29-4.87-2.82A10.76,10.76,0,0,1,352.09,195.15Z" style="fill:#fff;opacity:0.5"></path><path d="M327.72,209.22c2.69-1.55,4.87-.29,4.87,2.81a10.79,10.79,0,0,1-4.87,8.45c-2.69,1.55-4.88.29-4.88-2.82A10.77,10.77,0,0,1,327.72,209.22Z" style="fill:#fff;opacity:0.5"></path></g><path d="M161.18,348.87v-5.55a2.4,2.4,0,0,1,1.08-1.88l14.08-8.13c.6-.34,1.08-.06,1.08.63v5.55a2.4,2.4,0,0,1-1.08,1.88l-14.08,8.13C161.66,349.84,161.18,349.56,161.18,348.87Z" style="fill:#3FDFC8"></path><path d="M182.57,333.08l18.14-10.47c.6-.35,1.09-.1,1.09.54a2.32,2.32,0,0,1-1.09,1.8l-18.14,10.48c-.6.34-1.08.1-1.08-.55A2.32,2.32,0,0,1,182.57,333.08Z" style="fill:#e0e0e0"></path><path d="M214,318.39v-5.56a2.41,2.41,0,0,1,1.09-1.88l14.08-8.13c.6-.34,1.08-.06,1.08.63V309a2.39,2.39,0,0,1-1.08,1.88L215.07,319C214.47,319.36,214,319.08,214,318.39Z" style="fill:#3FDFC8"></path><path d="M214,318.39v-5.56a2.41,2.41,0,0,1,1.09-1.88l14.08-8.13c.6-.34,1.08-.06,1.08.63V309a2.39,2.39,0,0,1-1.08,1.88L215.07,319C214.47,319.36,214,319.08,214,318.39Z" style="opacity:0.35000000000000003"></path><path d="M235.38,302.59l18.14-10.47c.6-.35,1.08-.1,1.08.55a2.3,2.3,0,0,1-1.08,1.79l-18.14,10.48c-.6.34-1.09.1-1.09-.55A2.33,2.33,0,0,1,235.38,302.59Z" style="fill:#e0e0e0"></path><path d="M266.79,287.9v-5.56a2.37,2.37,0,0,1,1.08-1.87L282,272.34c.6-.35,1.09-.07,1.09.62v5.56a2.38,2.38,0,0,1-1.09,1.87l-14.08,8.13C267.27,288.87,266.79,288.59,266.79,287.9Z" style="fill:#3FDFC8"></path><path d="M266.79,287.9v-5.56a2.37,2.37,0,0,1,1.08-1.87L282,272.34c.6-.35,1.09-.07,1.09.62v5.56a2.38,2.38,0,0,1-1.09,1.87l-14.08,8.13C267.27,288.87,266.79,288.59,266.79,287.9Z" style="fill:#fff;opacity:0.5"></path><path d="M288.18,272.11l18.15-10.48c.59-.34,1.08-.1,1.08.55a2.35,2.35,0,0,1-1.08,1.8l-18.15,10.47c-.6.35-1.08.1-1.08-.55A2.3,2.3,0,0,1,288.18,272.11Z" style="fill:#e0e0e0"></path><path d="M319.6,257.41v-5.56a2.37,2.37,0,0,1,1.08-1.87l14.08-8.13c.6-.35,1.08-.07,1.08.62V248a2.37,2.37,0,0,1-1.08,1.87L320.68,258C320.08,258.38,319.6,258.1,319.6,257.41Z" style="fill:#3FDFC8"></path><path d="M319.6,257.41v-5.56a2.37,2.37,0,0,1,1.08-1.87l14.08-8.13c.6-.35,1.08-.07,1.08.62V248a2.37,2.37,0,0,1-1.08,1.87L320.68,258C320.08,258.38,319.6,258.1,319.6,257.41Z" style="fill:#fff;opacity:0.5"></path><path d="M341,241.62l18.14-10.48c.6-.34,1.09-.1,1.09.55a2.33,2.33,0,0,1-1.09,1.8L341,244c-.6.35-1.08.1-1.08-.54A2.31,2.31,0,0,1,341,241.62Z" style="fill:#e0e0e0"></path></g></g></svg>