<svg xmlns="http://www.w3.org/2000/svg" viewBox="0 0 500 500"><g id="freepik--Device--inject-2"><g id="freepik--Monitor--inject-2"><path d="M238.35,351l-27.91-16.11c-5.72-3.31-15.37-4.06-21.54-1.69l-16.57,6.38a94.78,94.78,0,0,0-20.58,11.71l-16.86,13.27a8.45,8.45,0,0,0-3.62,6.49v3.85c0,2.57,1.56,5.06,4.58,6.8l27.91,16.11c5.72,3.31,15,3.31,20.74,0l53.85-31.09c2.87-1.66,4.3-3.84,4.28-6V357C242.63,354.78,241.21,352.61,238.35,351Z" style="fill:#e6e6e6"></path><path d="M131.27,374.86c0,2.57,1.56,5.06,4.58,6.8l27.91,16.11a21.21,21.21,0,0,0,10.37,2.48v-4l-42.86-24.75Z" style="fill:#e0e0e0"></path><path d="M131.27,374.86c0,2.57,1.56,5.06,4.58,6.8l27.91,16.11a21.21,21.21,0,0,0,10.37,2.48v-4l-42.86-24.75Z" style="opacity:0.1"></path><path d="M188.9,333.16l-16.57,6.38a94.78,94.78,0,0,0-20.58,11.71l-16.86,13.27c-5.2,4.09-4.76,10.09,1,13.39L163.76,394c5.72,3.31,15,3.31,20.74,0l53.85-31.08c5.72-3.31,5.72-8.67,0-12l-27.91-16.11C204.72,331.54,195.07,330.79,188.9,333.16Z" style="fill:#f0f0f0"></path><path d="M210.44,334.85c-5.72-3.31-15.37-4.06-21.54-1.69l-16.57,6.38a94.78,94.78,0,0,0-20.58,11.71l-16.86,13.27a8.45,8.45,0,0,0-3.62,6.49v3.85c0,2.57,1.56,5.06,4.58,6.8l15.55,9v-3.73L226,343.83Z" style="opacity:0.1"></path><path d="M184.3,351.79c0-8.22,2.57-34.13,8-40.19L175,309.69c-8.5,9-18.67,30.43-24.82,42.79,0,0,5.07,2.07,11.32,4.65s15,2.59,19.44,0a6,6,0,0,0,3.35-5.34Z" style="fill:#e0e0e0"></path><path d="M184.3,351.79c0-8.22,2.57-34.13,8-40.19L175,309.69c-8.5,9-18.67,30.43-24.82,42.79,0,0,5.07,2.07,11.32,4.65s15,2.59,19.44,0a6,6,0,0,0,3.35-5.34Z" style="opacity:0.1"></path><path d="M181.07,312.18c3.35,1.39,8,1.39,10.42,0s2.4-4.08,0-6l-4.35-3.51a50,50,0,0,0-12.14,7Z" style="fill:#e0e0e0"></path><path d="M86.59,369a9.84,9.84,0,0,0,8.9-.17L304.62,248.12a10.16,10.16,0,0,0,4.59-8V46.92a9.84,9.84,0,0,0-4.31-7.79,9.84,9.84,0,0,0-8.9.16L86.88,160.05a10.13,10.13,0,0,0-4.6,7.95V361.25A9.85,9.85,0,0,0,86.59,369Z" style="fill:#455a64"></path><path d="M95.49,368.87,304.62,248.11a10.12,10.12,0,0,0,4.59-8V46.91c0-2.93-2-4.11-4.59-2.65L95.5,165A10.13,10.13,0,0,0,90.9,173V366.22C90.9,369.15,93,370.33,95.49,368.87Z" style="fill:#37474f"></path><path d="M90.9,350.59v15.63c0,2.93,2.06,4.11,4.59,2.65L304.62,248.11a10.12,10.12,0,0,0,4.59-8V224.53Z" style="fill:#ebebeb"></path><path d="M97,336.06V175a6.25,6.25,0,0,1,2.83-4.89L300.31,54.34c1.56-.9,2.83-.17,2.83,1.63V217a6.25,6.25,0,0,1-2.83,4.89L99.79,337.69C98.23,338.59,97,337.86,97,336.06Z" style="fill:#263238"></path><path d="M83.64,163.47l8.61,5A9.68,9.68,0,0,0,90.89,173V366.22c0,2.67,1.81,4.16,4.59,2.65a9.75,9.75,0,0,1-8.9.17,8.84,8.84,0,0,1-4.31-7.24V168A9.45,9.45,0,0,1,83.64,163.47Z" style="fill:#263238"></path></g></g><g id="freepik--Screen--inject-2"><g id="freepik--Window--inject-2"><g id="freepik--window--inject-2"><g style="opacity:0.8"><path d="M345,55a1.35,1.35,0,0,0-.05-.29.09.09,0,0,0,0-.07,1.15,1.15,0,0,0-.07-.28,2,2,0,0,0-.19-.42,1.63,1.63,0,0,0-.11-.17.35.35,0,0,0-.1-.11.7.7,0,0,0-.21-.21l0,0a1.43,1.43,0,0,0-.27-.15,2.33,2.33,0,0,0-2.18.27L127.94,176.9a7.14,7.14,0,0,0-3.23,5.59V338a2.18,2.18,0,0,0,1.16,1.94l.14.09a1,1,0,0,0,.17.1,1.22,1.22,0,0,0,.27.09,1.52,1.52,0,0,0,.42.06,2.1,2.1,0,0,0,1.07-.31l.08-.05h0l3.08-1.78L341.74,216.5a7.15,7.15,0,0,0,3.24-5.59V55.38C345,55.24,345,55.1,345,55Z" style="fill:#455a64"></path></g><path d="M343.92,53.24a2.33,2.33,0,0,0-2.18.27L127.94,176.9a7.14,7.14,0,0,0-3.23,5.59v10.56l-4.13-2.42V180.15a7.13,7.13,0,0,1,3.22-5.59L337.62,51.18A2.24,2.24,0,0,1,340,51C340.54,51.34,343.23,52.87,343.92,53.24Z" style="fill:#BA68C8"></path><path d="M345,55.35c0-2-1.45-2.86-3.23-1.83L127.94,176.9a7.11,7.11,0,0,0-3.23,5.59v10.57L345,66Z" style="fill:#BA68C8"></path><g style="opacity:0.4"><path d="M341.74,53.51,127.94,176.9a6.62,6.62,0,0,0-2.27,2.39l-4.11-2.37a6.48,6.48,0,0,1,2.25-2.36L337.62,51.18A2.27,2.27,0,0,1,340,51c.58.36,3.26,1.88,3.94,2.25A2.36,2.36,0,0,0,341.74,53.51Z" style="fill:#fff"></path></g><path d="M120.58,190.65v-10.5a6.62,6.62,0,0,1,1-3.23l4.12,2.36a6.56,6.56,0,0,0-1,3.21v10.57Z" style="opacity:0.15"></path><path d="M325.51,67.38a4.83,4.83,0,0,0-1.82,3.86c0,1.55.82,2.34,1.82,1.76a4.8,4.8,0,0,0,1.83-3.86C327.34,67.58,326.52,66.8,325.51,67.38Z" style="fill:#455a64"></path><path d="M332.08,63.58a4.83,4.83,0,0,0-1.82,3.86c0,1.55.82,2.34,1.82,1.76a4.8,4.8,0,0,0,1.83-3.86C333.91,63.78,333.09,63,332.08,63.58Z" style="fill:#455a64"></path><path d="M338.65,59.78a4.83,4.83,0,0,0-1.82,3.86c0,1.55.82,2.34,1.82,1.76a4.8,4.8,0,0,0,1.83-3.86C340.48,60,339.66,59.2,338.65,59.78Z" style="fill:#455a64"></path><path d="M125.87,339.92l-.17-.09-3.41-2a3.43,3.43,0,0,1-1.68-2.5,3.83,3.83,0,0,1,0-.47V190.64l4.12,2.42V338a2.12,2.12,0,0,0,1,1.83l.1.07,0,0Z" style="fill:#37474f;opacity:0.9"></path></g><g id="freepik--Code--inject-2"><path d="M189.21,164.61l45.08-26.08c.63-.36,1.15-.1,1.15.58a2.48,2.48,0,0,1-1.15,1.91l-45.08,26.07c-.63.37-1.15.11-1.15-.58A2.46,2.46,0,0,1,189.21,164.61Z" style="fill:#BA68C8"></path><path d="M206.44,184.5,329,113.66c.64-.36,1.15-.1,1.15.58a2.46,2.46,0,0,1-1.15,1.91L206.44,187c-.64.37-1.15.11-1.15-.58A2.44,2.44,0,0,1,206.44,184.5Z" style="fill:#f28f8f"></path><path d="M206.44,194.44l17.08-9.9c.64-.37,1.15-.11,1.15.58a2.42,2.42,0,0,1-1.15,1.9l-17.08,9.91c-.64.36-1.15.1-1.15-.58A2.46,2.46,0,0,1,206.44,194.44Z" style="fill:#f28f8f"></path><path d="M206.44,204.39l17.08-9.91c.64-.36,1.15-.1,1.15.58a2.46,2.46,0,0,1-1.15,1.91l-17.08,9.9c-.64.37-1.15.11-1.15-.58A2.44,2.44,0,0,1,206.44,204.39Z" style="fill:#f28f8f"></path><path d="M238.74,136l98.85-57.15c.64-.37,1.15-.11,1.15.58a2.46,2.46,0,0,1-1.15,1.91l-98.85,57.15c-.64.37-1.15.11-1.15-.58A2.46,2.46,0,0,1,238.74,136Z" style="fill:#BA68C8"></path><path d="M206.81,266.05l27.48-15.83c.63-.37,1.15-.11,1.15.58a2.46,2.46,0,0,1-1.15,1.9l-27.48,15.83c-.64.37-1.15.11-1.15-.58A2.44,2.44,0,0,1,206.81,266.05Z" style="fill:#BA68C8"></path><path d="M238.74,247.65l98.85-57.16c.64-.36,1.15-.1,1.15.58a2.46,2.46,0,0,1-1.15,1.91l-98.85,57.15c-.64.37-1.15.11-1.15-.58A2.44,2.44,0,0,1,238.74,247.65Z" style="fill:#BA68C8"></path><path d="M206.81,266.05l27.48-15.83c.63-.37,1.15-.11,1.15.58a2.46,2.46,0,0,1-1.15,1.9l-27.48,15.83c-.64.37-1.15.11-1.15-.58A2.44,2.44,0,0,1,206.81,266.05Z" style="fill:#fff;opacity:0.6000000000000001"></path><path d="M238.74,247.65l98.85-57.16c.64-.36,1.15-.1,1.15.58a2.46,2.46,0,0,1-1.15,1.91l-98.85,57.15c-.64.37-1.15.11-1.15-.58A2.44,2.44,0,0,1,238.74,247.65Z" style="fill:#fff;opacity:0.6000000000000001"></path><path d="M238.74,215.57l98.85-57.16c.64-.36,1.15-.1,1.15.58a2.46,2.46,0,0,1-1.15,1.91l-98.85,57.15c-.64.37-1.15.11-1.15-.58A2.44,2.44,0,0,1,238.74,215.57Z" style="fill:#BA68C8"></path><path d="M238.74,225.51l98.85-57.16c.64-.36,1.15-.1,1.15.58a2.46,2.46,0,0,1-1.15,1.91L238.74,228c-.64.37-1.15.11-1.15-.58A2.44,2.44,0,0,1,238.74,225.51Z" style="fill:#BA68C8"></path><path d="M206.81,253.81,234.29,238c.63-.36,1.15-.1,1.15.58a2.48,2.48,0,0,1-1.15,1.91L206.81,256.3c-.64.36-1.15.1-1.15-.58A2.46,2.46,0,0,1,206.81,253.81Z" style="fill:#ffa8a7"></path><path d="M229.11,221.14l3.41-2c.63-.37,1.14-.11,1.14.58a2.44,2.44,0,0,1-1.14,1.9l-3.41,2c-.64.37-1.15.11-1.15-.58A2.46,2.46,0,0,1,229.11,221.14Z" style="fill:#BA68C8"></path><path d="M189.21,174.58l22.71-13.18c.63-.36,1.14-.1,1.14.58a2.47,2.47,0,0,1-1.14,1.91l-22.71,13.17c-.63.37-1.15.11-1.15-.58A2.45,2.45,0,0,1,189.21,174.58Z" style="fill:#BA68C8"></path><path d="M189.21,174.58l22.71-13.18c.63-.36,1.14-.1,1.14.58a2.47,2.47,0,0,1-1.14,1.91l-22.71,13.17c-.63.37-1.15.11-1.15-.58A2.45,2.45,0,0,1,189.21,174.58Z" style="fill:#fff;opacity:0.6000000000000001"></path><path d="M189.21,184.5l10.63-6.14c.63-.37,1.14-.11,1.14.58a2.47,2.47,0,0,1-1.14,1.91L189.21,187c-.63.36-1.15.1-1.15-.58A2.48,2.48,0,0,1,189.21,184.5Z" style="fill:#BA68C8"></path><path d="M189.21,184.5l10.63-6.14c.63-.37,1.14-.11,1.14.58a2.47,2.47,0,0,1-1.14,1.91L189.21,187c-.63.36-1.15.1-1.15-.58A2.48,2.48,0,0,1,189.21,184.5Z" style="fill:#fff;opacity:0.6000000000000001"></path><path d="M189.21,194.45l10.63-6.15c.63-.36,1.14-.1,1.14.59a2.47,2.47,0,0,1-1.14,1.9l-10.63,6.14c-.63.37-1.15.11-1.15-.58A2.45,2.45,0,0,1,189.21,194.45Z" style="fill:#BA68C8"></path><path d="M189.21,194.45l10.63-6.15c.63-.36,1.14-.1,1.14.59a2.47,2.47,0,0,1-1.14,1.9l-10.63,6.14c-.63.37-1.15.11-1.15-.58A2.45,2.45,0,0,1,189.21,194.45Z" style="fill:#fff;opacity:0.6000000000000001"></path><path d="M189.21,204.39l10.63-6.14c.63-.37,1.14-.11,1.14.58a2.47,2.47,0,0,1-1.14,1.91l-10.63,6.14c-.63.36-1.15.1-1.15-.58A2.48,2.48,0,0,1,189.21,204.39Z" style="fill:#BA68C8"></path><path d="M189.21,204.39l10.63-6.14c.63-.37,1.14-.11,1.14.58a2.47,2.47,0,0,1-1.14,1.91l-10.63,6.14c-.63.36-1.15.1-1.15-.58A2.48,2.48,0,0,1,189.21,204.39Z" style="fill:#fff;opacity:0.6000000000000001"></path><path d="M189.21,214.33l10.63-6.14c.63-.36,1.14-.1,1.14.58a2.47,2.47,0,0,1-1.14,1.91l-10.63,6.14c-.63.37-1.15.11-1.15-.58A2.48,2.48,0,0,1,189.21,214.33Z" style="fill:#BA68C8"></path><path d="M189.21,214.33l10.63-6.14c.63-.36,1.14-.1,1.14.58a2.47,2.47,0,0,1-1.14,1.91l-10.63,6.14c-.63.37-1.15.11-1.15-.58A2.48,2.48,0,0,1,189.21,214.33Z" style="fill:#fff;opacity:0.6000000000000001"></path><path d="M206.44,275.72,329,204.89c.64-.37,1.15-.11,1.15.58a2.44,2.44,0,0,1-1.15,1.9L206.44,278.21c-.64.36-1.15.1-1.15-.58A2.46,2.46,0,0,1,206.44,275.72Z" style="fill:#f28f8f"></path><path d="M189.21,285.67l10.63-6.14c.63-.37,1.14-.11,1.14.58a2.44,2.44,0,0,1-1.14,1.9l-10.63,6.14c-.63.37-1.15.11-1.15-.58A2.46,2.46,0,0,1,189.21,285.67Z" style="fill:#BA68C8"></path><path d="M189.21,285.67l10.63-6.14c.63-.37,1.14-.11,1.14.58a2.44,2.44,0,0,1-1.14,1.9l-10.63,6.14c-.63.37-1.15.11-1.15-.58A2.46,2.46,0,0,1,189.21,285.67Z" style="fill:#fff;opacity:0.6000000000000001"></path><path d="M206.44,284.93,329,214.1c.64-.37,1.15-.11,1.15.58a2.44,2.44,0,0,1-1.15,1.9L206.44,287.42c-.64.36-1.15.1-1.15-.58A2.46,2.46,0,0,1,206.44,284.93Z" style="fill:#f28f8f"></path><path d="M189.21,294.88l10.63-6.14c.63-.37,1.14-.11,1.14.58a2.47,2.47,0,0,1-1.14,1.91l-10.63,6.14c-.63.36-1.15.1-1.15-.59A2.48,2.48,0,0,1,189.21,294.88Z" style="fill:#BA68C8"></path><path d="M189.21,294.88l10.63-6.14c.63-.37,1.14-.11,1.14.58a2.47,2.47,0,0,1-1.14,1.91l-10.63,6.14c-.63.36-1.15.1-1.15-.59A2.48,2.48,0,0,1,189.21,294.88Z" style="fill:#fff;opacity:0.6000000000000001"></path><path d="M216.36,158.84,230,151c.64-.37,1.15-.11,1.15.58a2.46,2.46,0,0,1-1.15,1.91l-13.62,7.83c-.63.37-1.14.11-1.14-.58A2.44,2.44,0,0,1,216.36,158.84Z" style="fill:#BA68C8"></path><path d="M216.36,158.84,230,151c.64-.37,1.15-.11,1.15.58a2.46,2.46,0,0,1-1.15,1.91l-13.62,7.83c-.63.37-1.14.11-1.14-.58A2.44,2.44,0,0,1,216.36,158.84Z" style="fill:#fff;opacity:0.6000000000000001"></path><path d="M237.42,206.41,337.6,148.48c.63-.37,1.14-.11,1.14.58A2.47,2.47,0,0,1,337.6,151L237.42,208.9c-.63.36-1.15.1-1.15-.58A2.48,2.48,0,0,1,237.42,206.41Z" style="fill:#ffa8a7"></path><path d="M324,146.36l13.61-7.84c.64-.36,1.15-.11,1.15.58a2.46,2.46,0,0,1-1.15,1.91L324,148.84c-.64.37-1.15.11-1.15-.58A2.44,2.44,0,0,1,324,146.36Z" style="fill:#ffa8a7"></path><path d="M219.36,206.86l100.17-57.93c.63-.37,1.15-.11,1.15.58a2.46,2.46,0,0,1-1.15,1.9L219.36,209.34c-.64.37-1.15.11-1.15-.58A2.44,2.44,0,0,1,219.36,206.86Z" style="fill:#ffa8a7"></path><path d="M206.44,174.56l22.7-13.17c.63-.37,1.15-.11,1.15.58a2.46,2.46,0,0,1-1.15,1.9L206.44,177c-.64.37-1.15.11-1.15-.58A2.44,2.44,0,0,1,206.44,174.56Z" style="fill:#BA68C8"></path><path d="M206.44,174.56l22.7-13.17c.63-.37,1.15-.11,1.15.58a2.46,2.46,0,0,1-1.15,1.9L206.44,177c-.64.37-1.15.11-1.15-.58A2.44,2.44,0,0,1,206.44,174.56Z" style="fill:#fff;opacity:0.6000000000000001"></path><path d="M233.59,158.82l91.09-52.6c.63-.37,1.14-.11,1.14.58a2.47,2.47,0,0,1-1.14,1.91L233.59,161.3c-.63.37-1.15.11-1.15-.58A2.46,2.46,0,0,1,233.59,158.82Z" style="fill:#BA68C8"></path><path d="M233.59,158.82l91.09-52.6c.63-.37,1.14-.11,1.14.58a2.47,2.47,0,0,1-1.14,1.91L233.59,161.3c-.63.37-1.15.11-1.15-.58A2.46,2.46,0,0,1,233.59,158.82Z" style="fill:#fff;opacity:0.6000000000000001"></path><g style="opacity:0.6000000000000001"><path d="M172.65,172.1l6.25-3.6c.62-.36,1.13-.07,1.13.65v2.3a2.51,2.51,0,0,1-1.13,2L172.65,177c-.62.36-1.13.06-1.13-.66v-2.29A2.52,2.52,0,0,1,172.65,172.1Z" style="fill:#fff"></path><path d="M172.65,182.14l6.25-3.61c.62-.36,1.13-.06,1.13.66v2.29a2.52,2.52,0,0,1-1.13,2l-6.25,3.6c-.62.37-1.13.07-1.13-.65v-2.3A2.51,2.51,0,0,1,172.65,182.14Z" style="fill:#fff"></path><path d="M172.65,192.18l6.25-3.61c.62-.36,1.13-.07,1.13.66v2.29a2.52,2.52,0,0,1-1.13,2l-6.25,3.6c-.62.36-1.13.07-1.13-.65v-2.3A2.51,2.51,0,0,1,172.65,192.18Z" style="fill:#fff"></path><path d="M172.65,202.22l6.25-3.61c.62-.36,1.13-.07,1.13.66v2.29a2.55,2.55,0,0,1-1.13,2l-6.25,3.6c-.62.36-1.13.07-1.13-.65v-2.3A2.51,2.51,0,0,1,172.65,202.22Z" style="fill:#fff"></path><path d="M172.65,212.25l6.25-3.6c.62-.36,1.13-.07,1.13.65v2.3a2.51,2.51,0,0,1-1.13,2l-6.25,3.61c-.62.36-1.13.07-1.13-.66v-2.29A2.55,2.55,0,0,1,172.65,212.25Z" style="fill:#fff"></path><path d="M172.65,222.29l6.25-3.6c.62-.36,1.13-.07,1.13.65v2.3a2.51,2.51,0,0,1-1.13,2l-6.25,3.61c-.62.36-1.13.06-1.13-.66v-2.29A2.52,2.52,0,0,1,172.65,222.29Z" style="fill:#fff"></path><path d="M172.65,232.33l6.25-3.6c.62-.37,1.13-.07,1.13.65v2.3a2.51,2.51,0,0,1-1.13,2l-6.25,3.6c-.62.37-1.13.07-1.13-.65v-2.3A2.51,2.51,0,0,1,172.65,232.33Z" style="fill:#fff"></path><path d="M172.65,242.37l6.25-3.61c.62-.36,1.13-.07,1.13.66v2.29a2.52,2.52,0,0,1-1.13,2l-6.25,3.6c-.62.36-1.13.07-1.13-.65v-2.3A2.51,2.51,0,0,1,172.65,242.37Z" style="fill:#fff"></path><path d="M172.65,252.41l6.25-3.61c.62-.36,1.13-.07,1.13.66v2.29a2.55,2.55,0,0,1-1.13,2l-6.25,3.6c-.62.36-1.13.07-1.13-.65v-2.3A2.51,2.51,0,0,1,172.65,252.41Z" style="fill:#fff"></path><path d="M172.65,262.44l6.25-3.6c.62-.36,1.13-.07,1.13.65v2.3a2.51,2.51,0,0,1-1.13,2l-6.25,3.61c-.62.36-1.13.07-1.13-.66v-2.29A2.55,2.55,0,0,1,172.65,262.44Z" style="fill:#fff"></path><path d="M172.65,272.48l6.25-3.6c.62-.36,1.13-.07,1.13.65v2.3a2.51,2.51,0,0,1-1.13,2l-6.25,3.61c-.62.36-1.13.06-1.13-.66v-2.29A2.52,2.52,0,0,1,172.65,272.48Z" style="fill:#fff"></path><path d="M172.65,282.52l6.25-3.6c.62-.37,1.13-.07,1.13.65v2.3a2.51,2.51,0,0,1-1.13,2l-6.25,3.6c-.62.37-1.13.07-1.13-.65v-2.3A2.51,2.51,0,0,1,172.65,282.52Z" style="fill:#fff"></path><path d="M172.65,292.27l6.25-3.6c.62-.36,1.13-.07,1.13.65v2.3a2.51,2.51,0,0,1-1.13,2l-6.25,3.61c-.62.36-1.13.06-1.13-.66v-2.29A2.52,2.52,0,0,1,172.65,292.27Z" style="fill:#fff"></path><path d="M172.65,302.31l6.25-3.6c.62-.37,1.13-.07,1.13.65v2.3a2.51,2.51,0,0,1-1.13,2l-6.25,3.6c-.62.37-1.13.07-1.13-.65v-2.3A2.51,2.51,0,0,1,172.65,302.31Z" style="fill:#fff"></path></g><path d="M131.23,195.54,165,176c1.25-.72,2.26-.13,2.26,1.31v39a5,5,0,0,1-2.26,3.93l-33.77,19.49c-1.25.73-2.27.14-2.27-1.31v-39A5,5,0,0,1,131.23,195.54Z" style="fill:#455a64"></path><path d="M134.37,230.56l3.1-1.79c.64-.36,1.15-.1,1.15.58a2.46,2.46,0,0,1-1.15,1.91l-3.1,1.79c-.64.37-1.15.11-1.15-.58A2.46,2.46,0,0,1,134.37,230.56Z" style="fill:#BA68C8"></path><path d="M134.37,230.56l3.1-1.79c.64-.36,1.15-.1,1.15.58a2.46,2.46,0,0,1-1.15,1.91l-3.1,1.79c-.64.37-1.15.11-1.15-.58A2.46,2.46,0,0,1,134.37,230.56Z" style="fill:#fff;opacity:0.6000000000000001"></path><path d="M134.37,198.64l3.1-1.79c.64-.37,1.15-.11,1.15.58a2.44,2.44,0,0,1-1.15,1.9l-3.1,1.79c-.64.37-1.15.11-1.15-.58A2.44,2.44,0,0,1,134.37,198.64Z" style="fill:#BA68C8"></path><path d="M134.37,198.64l3.1-1.79c.64-.37,1.15-.11,1.15.58a2.44,2.44,0,0,1-1.15,1.9l-3.1,1.79c-.64.37-1.15.11-1.15-.58A2.44,2.44,0,0,1,134.37,198.64Z" style="fill:#fff;opacity:0.6000000000000001"></path><path d="M138.73,202.49l3.11-1.79c.64-.37,1.15-.11,1.15.58a2.44,2.44,0,0,1-1.15,1.9L138.73,205c-.63.37-1.14.11-1.14-.58A2.45,2.45,0,0,1,138.73,202.49Z" style="fill:#BA68C8"></path><path d="M138.73,202.49l3.11-1.79c.64-.37,1.15-.11,1.15.58a2.44,2.44,0,0,1-1.15,1.9L138.73,205c-.63.37-1.14.11-1.14-.58A2.45,2.45,0,0,1,138.73,202.49Z" style="fill:#fff;opacity:0.6000000000000001"></path><path d="M138.73,208.86l3.11-1.8c.64-.36,1.15-.1,1.15.59a2.45,2.45,0,0,1-1.15,1.9l-3.11,1.79c-.63.37-1.14.11-1.14-.58A2.44,2.44,0,0,1,138.73,208.86Z" style="fill:#BA68C8"></path><path d="M138.73,208.86l3.11-1.8c.64-.36,1.15-.1,1.15.59a2.45,2.45,0,0,1-1.15,1.9l-3.11,1.79c-.63.37-1.14.11-1.14-.58A2.44,2.44,0,0,1,138.73,208.86Z" style="fill:#fff;opacity:0.6000000000000001"></path><path d="M134.37,217.79l3.1-1.79c.64-.37,1.15-.11,1.15.58a2.42,2.42,0,0,1-1.15,1.9l-3.1,1.8c-.64.36-1.15.1-1.15-.59A2.45,2.45,0,0,1,134.37,217.79Z" style="fill:#BA68C8"></path><path d="M134.37,217.79l3.1-1.79c.64-.37,1.15-.11,1.15.58a2.42,2.42,0,0,1-1.15,1.9l-3.1,1.8c-.64.36-1.15.1-1.15-.59A2.45,2.45,0,0,1,134.37,217.79Z" style="fill:#fff;opacity:0.6000000000000001"></path><path d="M138.73,221.64l3.11-1.79c.64-.36,1.15-.1,1.15.58a2.46,2.46,0,0,1-1.15,1.91l-3.11,1.79c-.63.37-1.14.11-1.14-.58A2.47,2.47,0,0,1,138.73,221.64Z" style="fill:#BA68C8"></path><path d="M138.73,221.64l3.11-1.79c.64-.36,1.15-.1,1.15.58a2.46,2.46,0,0,1-1.15,1.91l-3.11,1.79c-.63.37-1.14.11-1.14-.58A2.47,2.47,0,0,1,138.73,221.64Z" style="fill:#fff;opacity:0.6000000000000001"></path><path d="M142.88,193.73l19-11c.63-.37,1.15-.11,1.15.58a2.46,2.46,0,0,1-1.15,1.9l-19,11c-.64.37-1.15.11-1.15-.58A2.44,2.44,0,0,1,142.88,193.73Z" style="fill:#BA68C8"></path><path d="M142.88,193.73l19-11c.63-.37,1.15-.11,1.15.58a2.46,2.46,0,0,1-1.15,1.9l-19,11c-.64.37-1.15.11-1.15-.58A2.44,2.44,0,0,1,142.88,193.73Z" style="fill:#fff;opacity:0.8"></path><path d="M142.88,225.65l19-11c.63-.36,1.15-.1,1.15.59a2.46,2.46,0,0,1-1.15,1.9l-19,11c-.64.37-1.15.11-1.15-.58A2.46,2.46,0,0,1,142.88,225.65Z" style="fill:#BA68C8"></path><path d="M142.88,225.65l19-11c.63-.36,1.15-.1,1.15.59a2.46,2.46,0,0,1-1.15,1.9l-19,11c-.64.37-1.15.11-1.15-.58A2.46,2.46,0,0,1,142.88,225.65Z" style="fill:#fff;opacity:0.8"></path><path d="M147.25,197.57l14.61-8.42c.63-.36,1.15-.1,1.15.58a2.48,2.48,0,0,1-1.15,1.91l-14.61,8.42c-.64.37-1.15.11-1.15-.58A2.46,2.46,0,0,1,147.25,197.57Z" style="fill:#BA68C8"></path><path d="M147.25,197.57l14.61-8.42c.63-.36,1.15-.1,1.15.58a2.48,2.48,0,0,1-1.15,1.91l-14.61,8.42c-.64.37-1.15.11-1.15-.58A2.46,2.46,0,0,1,147.25,197.57Z" style="fill:#fff;opacity:0.8"></path><path d="M147.25,204l14.61-8.42c.63-.37,1.15-.11,1.15.58a2.45,2.45,0,0,1-1.15,1.9l-14.61,8.43c-.64.36-1.15.1-1.15-.58A2.46,2.46,0,0,1,147.25,204Z" style="fill:#BA68C8"></path><path d="M147.25,204l14.61-8.42c.63-.37,1.15-.11,1.15.58a2.45,2.45,0,0,1-1.15,1.9l-14.61,8.43c-.64.36-1.15.1-1.15-.58A2.46,2.46,0,0,1,147.25,204Z" style="fill:#fff;opacity:0.8"></path><path d="M142.88,212.88l19-11c.63-.36,1.15-.1,1.15.58a2.48,2.48,0,0,1-1.15,1.91l-19,11c-.64.36-1.15.11-1.15-.58A2.46,2.46,0,0,1,142.88,212.88Z" style="fill:#BA68C8"></path><path d="M142.88,212.88l19-11c.63-.36,1.15-.1,1.15.58a2.48,2.48,0,0,1-1.15,1.91l-19,11c-.64.36-1.15.11-1.15-.58A2.46,2.46,0,0,1,142.88,212.88Z" style="fill:#fff;opacity:0.8"></path><path d="M147.25,216.73l14.61-8.42c.63-.37,1.15-.11,1.15.58a2.48,2.48,0,0,1-1.15,1.91l-14.61,8.42c-.64.37-1.15.11-1.15-.58A2.46,2.46,0,0,1,147.25,216.73Z" style="fill:#BA68C8"></path><path d="M147.25,216.73l14.61-8.42c.63-.37,1.15-.11,1.15.58a2.48,2.48,0,0,1-1.15,1.91l-14.61,8.42c-.64.37-1.15.11-1.15-.58A2.46,2.46,0,0,1,147.25,216.73Z" style="fill:#fff;opacity:0.8"></path><path d="M131.23,247.1,165,227.6c1.25-.72,2.26-.13,2.26,1.31v77a5,5,0,0,1-2.26,3.93l-33.77,19.49c-1.25.73-2.27.14-2.27-1.31V251A5,5,0,0,1,131.23,247.1Z" style="fill:#455a64"></path><path d="M134.37,250.2l3.1-1.79c.64-.37,1.15-.11,1.15.58a2.44,2.44,0,0,1-1.15,1.9l-3.1,1.79c-.64.37-1.15.11-1.15-.58A2.44,2.44,0,0,1,134.37,250.2Z" style="fill:#BA68C8"></path><path d="M134.37,250.2l3.1-1.79c.64-.37,1.15-.11,1.15.58a2.44,2.44,0,0,1-1.15,1.9l-3.1,1.79c-.64.37-1.15.11-1.15-.58A2.44,2.44,0,0,1,134.37,250.2Z" style="fill:#fff;opacity:0.6000000000000001"></path><path d="M138.73,254.05l3.11-1.79c.64-.37,1.15-.11,1.15.58a2.44,2.44,0,0,1-1.15,1.9l-3.11,1.79c-.63.37-1.14.11-1.14-.58A2.45,2.45,0,0,1,138.73,254.05Z" style="fill:#BA68C8"></path><path d="M138.73,254.05l3.11-1.79c.64-.37,1.15-.11,1.15.58a2.44,2.44,0,0,1-1.15,1.9l-3.11,1.79c-.63.37-1.14.11-1.14-.58A2.45,2.45,0,0,1,138.73,254.05Z" style="fill:#fff;opacity:0.6000000000000001"></path><path d="M138.73,260.42l3.11-1.8c.64-.36,1.15-.1,1.15.59a2.45,2.45,0,0,1-1.15,1.9l-3.11,1.79c-.63.37-1.14.11-1.14-.58A2.45,2.45,0,0,1,138.73,260.42Z" style="fill:#BA68C8"></path><path d="M138.73,260.42l3.11-1.8c.64-.36,1.15-.1,1.15.59a2.45,2.45,0,0,1-1.15,1.9l-3.11,1.79c-.63.37-1.14.11-1.14-.58A2.45,2.45,0,0,1,138.73,260.42Z" style="fill:#fff;opacity:0.6000000000000001"></path><path d="M134.37,269.35l3.1-1.79c.64-.37,1.15-.11,1.15.58a2.42,2.42,0,0,1-1.15,1.9l-3.1,1.8c-.64.36-1.15.1-1.15-.58A2.46,2.46,0,0,1,134.37,269.35Z" style="fill:#BA68C8"></path><path d="M134.37,269.35l3.1-1.79c.64-.37,1.15-.11,1.15.58a2.42,2.42,0,0,1-1.15,1.9l-3.1,1.8c-.64.36-1.15.1-1.15-.58A2.46,2.46,0,0,1,134.37,269.35Z" style="fill:#fff;opacity:0.6000000000000001"></path><path d="M142.88,245.29l19-11c.63-.37,1.15-.11,1.15.58a2.45,2.45,0,0,1-1.15,1.9l-19,11c-.64.37-1.15.11-1.15-.58A2.44,2.44,0,0,1,142.88,245.29Z" style="fill:#BA68C8"></path><path d="M142.88,245.29l19-11c.63-.37,1.15-.11,1.15.58a2.45,2.45,0,0,1-1.15,1.9l-19,11c-.64.37-1.15.11-1.15-.58A2.44,2.44,0,0,1,142.88,245.29Z" style="fill:#fff;opacity:0.8"></path><path d="M147.25,249.13l14.61-8.42c.63-.36,1.15-.1,1.15.58a2.48,2.48,0,0,1-1.15,1.91l-14.61,8.42c-.64.37-1.15.11-1.15-.58A2.46,2.46,0,0,1,147.25,249.13Z" style="fill:#BA68C8"></path><path d="M147.25,249.13l14.61-8.42c.63-.36,1.15-.1,1.15.58a2.48,2.48,0,0,1-1.15,1.91l-14.61,8.42c-.64.37-1.15.11-1.15-.58A2.46,2.46,0,0,1,147.25,249.13Z" style="fill:#fff;opacity:0.8"></path><path d="M147.25,255.52l14.61-8.42c.63-.37,1.15-.11,1.15.58a2.48,2.48,0,0,1-1.15,1.91L147.25,258c-.64.36-1.15.1-1.15-.58A2.46,2.46,0,0,1,147.25,255.52Z" style="fill:#BA68C8"></path><path d="M147.25,255.52l14.61-8.42c.63-.37,1.15-.11,1.15.58a2.48,2.48,0,0,1-1.15,1.91L147.25,258c-.64.36-1.15.1-1.15-.58A2.46,2.46,0,0,1,147.25,255.52Z" style="fill:#fff;opacity:0.8"></path><path d="M142.88,264.44l19-11c.63-.36,1.15-.1,1.15.58a2.48,2.48,0,0,1-1.15,1.91l-19,11c-.64.37-1.15.11-1.15-.58A2.46,2.46,0,0,1,142.88,264.44Z" style="fill:#BA68C8"></path><path d="M142.88,264.44l19-11c.63-.36,1.15-.1,1.15.58a2.48,2.48,0,0,1-1.15,1.91l-19,11c-.64.37-1.15.11-1.15-.58A2.46,2.46,0,0,1,142.88,264.44Z" style="fill:#fff;opacity:0.8"></path><path d="M138.73,273.24l3.11-1.79c.64-.37,1.15-.11,1.15.58a2.46,2.46,0,0,1-1.15,1.91l-3.11,1.79c-.63.36-1.14.1-1.14-.58A2.47,2.47,0,0,1,138.73,273.24Z" style="fill:#BA68C8"></path><path d="M138.73,273.24l3.11-1.79c.64-.37,1.15-.11,1.15.58a2.46,2.46,0,0,1-1.15,1.91l-3.11,1.79c-.63.36-1.14.1-1.14-.58A2.47,2.47,0,0,1,138.73,273.24Z" style="fill:#fff;opacity:0.6000000000000001"></path><path d="M138.73,279.61l3.11-1.79c.64-.37,1.15-.11,1.15.58a2.46,2.46,0,0,1-1.15,1.91l-3.11,1.79c-.63.36-1.14.1-1.14-.58A2.47,2.47,0,0,1,138.73,279.61Z" style="fill:#BA68C8"></path><path d="M138.73,279.61l3.11-1.79c.64-.37,1.15-.11,1.15.58a2.46,2.46,0,0,1-1.15,1.91l-3.11,1.79c-.63.36-1.14.1-1.14-.58A2.47,2.47,0,0,1,138.73,279.61Z" style="fill:#fff;opacity:0.6000000000000001"></path><path d="M147.25,268.33l14.61-8.42c.63-.37,1.15-.11,1.15.58a2.45,2.45,0,0,1-1.15,1.9l-14.61,8.43c-.64.36-1.15.1-1.15-.59A2.45,2.45,0,0,1,147.25,268.33Z" style="fill:#BA68C8"></path><path d="M147.25,268.33l14.61-8.42c.63-.37,1.15-.11,1.15.58a2.45,2.45,0,0,1-1.15,1.9l-14.61,8.43c-.64.36-1.15.1-1.15-.59A2.45,2.45,0,0,1,147.25,268.33Z" style="fill:#fff;opacity:0.8"></path><path d="M147.25,274.71l14.61-8.42c.63-.36,1.15-.1,1.15.58a2.48,2.48,0,0,1-1.15,1.91l-14.61,8.42c-.64.37-1.15.11-1.15-.58A2.46,2.46,0,0,1,147.25,274.71Z" style="fill:#BA68C8"></path><path d="M147.25,274.71l14.61-8.42c.63-.36,1.15-.1,1.15.58a2.48,2.48,0,0,1-1.15,1.91l-14.61,8.42c-.64.37-1.15.11-1.15-.58A2.46,2.46,0,0,1,147.25,274.71Z" style="fill:#fff;opacity:0.8"></path><path d="M134.37,301.35l3.1-1.79c.64-.36,1.15-.1,1.15.58a2.46,2.46,0,0,1-1.15,1.91l-3.1,1.79c-.64.37-1.15.11-1.15-.58A2.46,2.46,0,0,1,134.37,301.35Z" style="fill:#BA68C8"></path><path d="M134.37,301.35l3.1-1.79c.64-.36,1.15-.1,1.15.58a2.46,2.46,0,0,1-1.15,1.91l-3.1,1.79c-.64.37-1.15.11-1.15-.58A2.46,2.46,0,0,1,134.37,301.35Z" style="fill:#fff;opacity:0.6000000000000001"></path><path d="M142.88,296.45l19-11c.63-.37,1.15-.11,1.15.58a2.45,2.45,0,0,1-1.15,1.9l-19,11c-.64.37-1.15.11-1.15-.58A2.44,2.44,0,0,1,142.88,296.45Z" style="fill:#BA68C8"></path><path d="M142.88,296.45l19-11c.63-.37,1.15-.11,1.15.58a2.45,2.45,0,0,1-1.15,1.9l-19,11c-.64.37-1.15.11-1.15-.58A2.44,2.44,0,0,1,142.88,296.45Z" style="fill:#fff;opacity:0.8"></path><path d="M138.73,305.25l3.11-1.8c.64-.36,1.15-.1,1.15.58a2.46,2.46,0,0,1-1.15,1.91l-3.11,1.79c-.63.37-1.14.11-1.14-.58A2.44,2.44,0,0,1,138.73,305.25Z" style="fill:#BA68C8"></path><path d="M138.73,305.25l3.11-1.8c.64-.36,1.15-.1,1.15.58a2.46,2.46,0,0,1-1.15,1.91l-3.11,1.79c-.63.37-1.14.11-1.14-.58A2.44,2.44,0,0,1,138.73,305.25Z" style="fill:#fff;opacity:0.6000000000000001"></path><path d="M138.73,311.61l3.11-1.79c.64-.36,1.15-.1,1.15.58a2.46,2.46,0,0,1-1.15,1.91l-3.11,1.79c-.63.37-1.14.11-1.14-.58A2.47,2.47,0,0,1,138.73,311.61Z" style="fill:#BA68C8"></path><path d="M138.73,311.61l3.11-1.79c.64-.36,1.15-.1,1.15.58a2.46,2.46,0,0,1-1.15,1.91l-3.11,1.79c-.63.37-1.14.11-1.14-.58A2.47,2.47,0,0,1,138.73,311.61Z" style="fill:#fff;opacity:0.6000000000000001"></path><path d="M147.25,300.33l14.61-8.42c.63-.36,1.15-.1,1.15.58a2.48,2.48,0,0,1-1.15,1.91l-14.61,8.42c-.64.37-1.15.11-1.15-.58A2.46,2.46,0,0,1,147.25,300.33Z" style="fill:#BA68C8"></path><path d="M147.25,300.33l14.61-8.42c.63-.36,1.15-.1,1.15.58a2.48,2.48,0,0,1-1.15,1.91l-14.61,8.42c-.64.37-1.15.11-1.15-.58A2.46,2.46,0,0,1,147.25,300.33Z" style="fill:#fff;opacity:0.8"></path><path d="M147.25,306.72l14.61-8.42c.63-.37,1.15-.11,1.15.58a2.46,2.46,0,0,1-1.15,1.9l-14.61,8.42c-.64.37-1.15.11-1.15-.58A2.44,2.44,0,0,1,147.25,306.72Z" style="fill:#BA68C8"></path><path d="M147.25,306.72l14.61-8.42c.63-.37,1.15-.11,1.15.58a2.46,2.46,0,0,1-1.15,1.9l-14.61,8.42c-.64.37-1.15.11-1.15-.58A2.44,2.44,0,0,1,147.25,306.72Z" style="fill:#fff;opacity:0.8"></path><path d="M138.73,286l3.11-1.8c.64-.36,1.15-.1,1.15.58a2.46,2.46,0,0,1-1.15,1.91l-3.11,1.79c-.63.37-1.14.11-1.14-.58A2.44,2.44,0,0,1,138.73,286Z" style="fill:#BA68C8"></path><path d="M138.73,286l3.11-1.8c.64-.36,1.15-.1,1.15.58a2.46,2.46,0,0,1-1.15,1.91l-3.11,1.79c-.63.37-1.14.11-1.14-.58A2.44,2.44,0,0,1,138.73,286Z" style="fill:#fff;opacity:0.6000000000000001"></path><path d="M134.37,294.88l3.1-1.79c.64-.37,1.15-.11,1.15.58a2.42,2.42,0,0,1-1.15,1.9l-3.1,1.8c-.64.36-1.15.1-1.15-.58A2.46,2.46,0,0,1,134.37,294.88Z" style="fill:#BA68C8"></path><path d="M134.37,294.88l3.1-1.79c.64-.37,1.15-.11,1.15.58a2.42,2.42,0,0,1-1.15,1.9l-3.1,1.8c-.64.36-1.15.1-1.15-.58A2.46,2.46,0,0,1,134.37,294.88Z" style="fill:#fff;opacity:0.6000000000000001"></path><path d="M147.25,281.05l14.61-8.42c.63-.37,1.15-.11,1.15.58a2.45,2.45,0,0,1-1.15,1.9l-14.61,8.43c-.64.36-1.15.1-1.15-.58A2.46,2.46,0,0,1,147.25,281.05Z" style="fill:#BA68C8"></path><path d="M147.25,281.05l14.61-8.42c.63-.37,1.15-.11,1.15.58a2.45,2.45,0,0,1-1.15,1.9l-14.61,8.43c-.64.36-1.15.1-1.15-.58A2.46,2.46,0,0,1,147.25,281.05Z" style="fill:#fff;opacity:0.8"></path><path d="M142.88,290l19-11c.63-.36,1.15-.1,1.15.58a2.48,2.48,0,0,1-1.15,1.91l-19,11c-.64.36-1.15.11-1.15-.58A2.46,2.46,0,0,1,142.88,290Z" style="fill:#BA68C8"></path><path d="M142.88,290l19-11c.63-.36,1.15-.1,1.15.58a2.48,2.48,0,0,1-1.15,1.91l-19,11c-.64.36-1.15.11-1.15-.58A2.46,2.46,0,0,1,142.88,290Z" style="fill:#fff;opacity:0.8"></path><path d="M134.37,320.64l3.1-1.79c.64-.37,1.15-.11,1.15.58a2.44,2.44,0,0,1-1.15,1.9l-3.1,1.79c-.64.37-1.15.11-1.15-.58A2.44,2.44,0,0,1,134.37,320.64Z" style="fill:#BA68C8"></path><path d="M134.37,320.64l3.1-1.79c.64-.37,1.15-.11,1.15.58a2.44,2.44,0,0,1-1.15,1.9l-3.1,1.79c-.64.37-1.15.11-1.15-.58A2.44,2.44,0,0,1,134.37,320.64Z" style="fill:#fff;opacity:0.6000000000000001"></path><path d="M142.88,315.73l19-11c.63-.36,1.15-.1,1.15.58a2.48,2.48,0,0,1-1.15,1.91l-19,11c-.64.36-1.15.1-1.15-.58A2.46,2.46,0,0,1,142.88,315.73Z" style="fill:#BA68C8"></path><path d="M142.88,315.73l19-11c.63-.36,1.15-.1,1.15.58a2.48,2.48,0,0,1-1.15,1.91l-19,11c-.64.36-1.15.1-1.15-.58A2.46,2.46,0,0,1,142.88,315.73Z" style="fill:#fff;opacity:0.8"></path></g></g></g><g id="freepik--Gears--inject-2"><g id="freepik--gears--inject-2"><path d="M59.34,161.76l-3.93-2.27a2.28,2.28,0,0,1-1-1.79V79.52a2.3,2.3,0,0,1,1-1.8l62.91-36.31a2.29,2.29,0,0,1,2.07,0l3.93,2.27a2.3,2.3,0,0,1,1,1.8v78.17a2.3,2.3,0,0,1-1,1.8L61.41,161.76A2.29,2.29,0,0,1,59.34,161.76Z" style="fill:#BA68C8"></path><path d="M59.34,161.76l-3.93-2.27a2.28,2.28,0,0,1-1-1.79V79.52a2.3,2.3,0,0,1,1-1.8l62.91-36.31a2.29,2.29,0,0,1,2.07,0l3.93,2.27a2.3,2.3,0,0,1,1,1.8v78.17a2.3,2.3,0,0,1-1,1.8L61.41,161.76A2.29,2.29,0,0,1,59.34,161.76Z" style="fill:#fff;opacity:0.8"></path><path d="M125.35,45.31c-.08-.54-.51-.74-1-.44L61.41,81.19a2.17,2.17,0,0,0-.73.77l-6-3.46a2.2,2.2,0,0,1,.73-.78l62.91-36.31a2.29,2.29,0,0,1,2.07,0l3.93,2.27A2.33,2.33,0,0,1,125.35,45.31Z" style="fill:#BA68C8;opacity:0.30000000000000004"></path><path d="M61.17,161.87a2.28,2.28,0,0,1-1.83-.11l-3.93-2.27a2.29,2.29,0,0,1-1-1.79V79.52a2.08,2.08,0,0,1,.31-1l6,3.46a2.1,2.1,0,0,0-.3,1v78.18C60.38,161.73,60.72,162,61.17,161.87Z" style="fill:#BA68C8;opacity:0.5"></path><g style="opacity:0.30000000000000004"><path d="M124.78,45.21s.07,0,.09.14v78.3a1.82,1.82,0,0,1-.8,1.39L61.2,161.34l-.15.07-.09,0c-.1,0-.11-.21-.11-.27V83a1.79,1.79,0,0,1,.8-1.39l62.9-36.32a.43.43,0,0,1,.23-.07m0-.48a1,1,0,0,0-.46.14L61.41,81.19a2.12,2.12,0,0,0-.73.78,2.18,2.18,0,0,0-.3,1v78.17c0,.47.23.74.58.74l.22,0,.23-.11,62.91-36.31a2.31,2.31,0,0,0,1-1.8V45.48a1,1,0,0,0,0-.17.06.06,0,0,0,0,0,.57.57,0,0,0-.56-.54Z" style="fill:#BA68C8"></path></g><path d="M133.34,93.34a.42.42,0,0,0-.45,0l-.95.63-.21.56a1.1,1.1,0,0,0,.26,1.06,5.66,5.66,0,0,1,.43.52.63.63,0,0,0,.88.21l2.22-1.46a.4.4,0,0,1,.44,0h0Zm-.74-2.51h0L130,89.31l-.17-.07-1.67-.37a.91.91,0,0,0-.95.44l-1.56,3a1.55,1.55,0,0,1-.63.58l.49,1.62a.57.57,0,0,0,.8.36,8.62,8.62,0,0,1,1-.33,1.64,1.64,0,0,0,.95-.72l1.57-3a.87.87,0,0,1,.94-.43l1.67.37ZM127,98.89a4.06,4.06,0,0,1,.32,1c.48,2.86-1.32,6.89-4,9a5.6,5.6,0,0,1-2.84,1.27c.88,1.91,3.12,2.09,5.46.25,2.72-2.14,4.51-6.17,4-9C129.63,99.67,128.48,98.77,127,98.89Zm-1.64,19.42h0l-.07,0Zm-.78-2.17a.58.58,0,0,0-.8-.36,8.27,8.27,0,0,1-1,.34,1,1,0,0,0-.32.14l.07.23a.46.46,0,0,0,.22.29l2.57,1.49a.51.51,0,0,1-.15-.26ZM121.4,97.82l-.15-2.38a1.4,1.4,0,0,1,.47-1.07l2.5-2a.42.42,0,0,1,.5-.06h0l-2.63-1.52a.37.37,0,0,0-.18,0,.54.54,0,0,0-.32.11l-2.5,2a1.44,1.44,0,0,0-.48,1l.16,2.39a1.92,1.92,0,0,1-.39,1.15c-.41.49-.8,1-1.17,1.54a1.25,1.25,0,0,1-1,.51l-1.6-.08a1,1,0,0,0-.92.57l-1.51,3.38a.64.64,0,0,0,.25.82h0l1.79,1a.81.81,0,0,1,0,.46,16.09,16.09,0,0,0-.27,1.62,2.09,2.09,0,0,1-.54,1.09l-2.22,2a1.35,1.35,0,0,0-.37,1.09l.41,2.42a.5.5,0,0,0,.2.33l2.65,1.53h0a.41.41,0,0,1-.21-.33l-.42-2.42a1.35,1.35,0,0,1,.38-1.09l2.21-2a2,2,0,0,0,.54-1.09,15.7,15.7,0,0,1,.28-1.62.81.81,0,0,0-.45-.9l-1.3-.55a.65.65,0,0,1-.33-.85l1.51-3.39a1,1,0,0,1,.92-.57l1.61.08a1.36,1.36,0,0,0,1-.51A17.71,17.71,0,0,1,121,99,1.94,1.94,0,0,0,121.4,97.82Zm-3.76,16.67a.64.64,0,0,0-.89-.2l-1.25.83-.93,2.48a.57.57,0,0,0,.22.69l2.61,1.5a.55.55,0,0,1-.19-.67l1.12-3.05a1.08,1.08,0,0,0-.26-1A4.52,4.52,0,0,1,117.64,114.49Z" style="fill:#BA68C8"></path><g style="opacity:0.2"><path d="M133.34,93.34a.42.42,0,0,0-.45,0l-.95.63-.21.56a1.1,1.1,0,0,0,.26,1.06,5.66,5.66,0,0,1,.43.52.63.63,0,0,0,.88.21l2.22-1.46a.4.4,0,0,1,.44,0h0Zm-.74-2.51h0L130,89.31l-.17-.07-1.67-.37a.91.91,0,0,0-.95.44l-1.56,3a1.55,1.55,0,0,1-.63.58l.49,1.62a.57.57,0,0,0,.8.36,8.62,8.62,0,0,1,1-.33,1.64,1.64,0,0,0,.95-.72l1.57-3a.87.87,0,0,1,.94-.43l1.67.37ZM127,98.89a4.06,4.06,0,0,1,.32,1c.48,2.86-1.32,6.89-4,9a5.6,5.6,0,0,1-2.84,1.27c.88,1.91,3.12,2.09,5.46.25,2.72-2.14,4.51-6.17,4-9C129.63,99.67,128.48,98.77,127,98.89Zm-1.64,19.42h0l-.07,0Zm-.78-2.17a.58.58,0,0,0-.8-.36,8.27,8.27,0,0,1-1,.34,1,1,0,0,0-.32.14l.07.23a.46.46,0,0,0,.22.29l2.57,1.49a.51.51,0,0,1-.15-.26ZM121.4,97.82l-.15-2.38a1.4,1.4,0,0,1,.47-1.07l2.5-2a.42.42,0,0,1,.5-.06h0l-2.63-1.52a.37.37,0,0,0-.18,0,.54.54,0,0,0-.32.11l-2.5,2a1.44,1.44,0,0,0-.48,1l.16,2.39a1.92,1.92,0,0,1-.39,1.15c-.41.49-.8,1-1.17,1.54a1.25,1.25,0,0,1-1,.51l-1.6-.08a1,1,0,0,0-.92.57l-1.51,3.38a.64.64,0,0,0,.25.82h0l1.79,1a.81.81,0,0,1,0,.46,16.09,16.09,0,0,0-.27,1.62,2.09,2.09,0,0,1-.54,1.09l-2.22,2a1.35,1.35,0,0,0-.37,1.09l.41,2.42a.5.5,0,0,0,.2.33l2.65,1.53h0a.41.41,0,0,1-.21-.33l-.42-2.42a1.35,1.35,0,0,1,.38-1.09l2.21-2a2,2,0,0,0,.54-1.09,15.7,15.7,0,0,1,.28-1.62.81.81,0,0,0-.45-.9l-1.3-.55a.65.65,0,0,1-.33-.85l1.51-3.39a1,1,0,0,1,.92-.57l1.61.08a1.36,1.36,0,0,0,1-.51A17.71,17.71,0,0,1,121,99,1.94,1.94,0,0,0,121.4,97.82Zm-3.76,16.67a.64.64,0,0,0-.89-.2l-1.25.83-.93,2.48a.57.57,0,0,0,.22.69l2.61,1.5a.55.55,0,0,1-.19-.67l1.12-3.05a1.08,1.08,0,0,0-.26-1A4.52,4.52,0,0,1,117.64,114.49Z"></path></g><path d="M116.19,99.5l-1.6-.08a1,1,0,0,0-.67.24l2.64,1.52a1,1,0,0,1,.66-.24l1.61.08a1.17,1.17,0,0,0,.47-.1l-2.64-1.52A1.14,1.14,0,0,1,116.19,99.5Zm5.4-8.61-2.5,2a1.4,1.4,0,0,0-.41.65L121.31,95a1.43,1.43,0,0,1,.41-.66l2.5-2a.42.42,0,0,1,.5-.06h0l-2.63-1.52A.45.45,0,0,0,121.59,90.89ZM111.2,110.43a1.42,1.42,0,0,0-.34.63l2.63,1.52a1.26,1.26,0,0,1,.35-.63l2.18-2-2.62-1.52Zm22.14-17.09a.4.4,0,0,0-.45,0l-.95.63-.21.56a1,1,0,0,0,0,.7,1.4,1.4,0,0,0,.18.3l0,0,0,0a1.36,1.36,0,0,1,.12.12c.11.13.22.26.32.4a.7.7,0,0,0,.39.29,1,1,0,0,0,.25,0h.08a.8.8,0,0,0,.16-.08l2.22-1.46a.56.56,0,0,1,.28-.1.31.31,0,0,1,.13,0l0,0Zm-.74-2.51h0L130,89.31l-.17-.07-1.67-.37a.91.91,0,0,0-.95.44l-1.56,3a1.49,1.49,0,0,1-.36.4l2.63,1.52a1.25,1.25,0,0,0,.36-.41l1.57-3a.87.87,0,0,1,.94-.43l1.67.37Z" style="fill:#BA68C8"></path><path d="M116.19,99.5l-1.6-.08a1,1,0,0,0-.67.24l2.64,1.52a1,1,0,0,1,.66-.24l1.61.08a1.17,1.17,0,0,0,.47-.1l-2.64-1.52A1.14,1.14,0,0,1,116.19,99.5Zm5.4-8.61-2.5,2a1.4,1.4,0,0,0-.41.65L121.31,95a1.43,1.43,0,0,1,.41-.66l2.5-2a.42.42,0,0,1,.5-.06h0l-2.63-1.52A.45.45,0,0,0,121.59,90.89ZM111.2,110.43a1.42,1.42,0,0,0-.34.63l2.63,1.52a1.26,1.26,0,0,1,.35-.63l2.18-2-2.62-1.52Zm22.14-17.09a.4.4,0,0,0-.45,0l-.95.63-.21.56a1,1,0,0,0,0,.7,1.4,1.4,0,0,0,.18.3l0,0,0,0a1.36,1.36,0,0,1,.12.12c.11.13.22.26.32.4a.7.7,0,0,0,.39.29,1,1,0,0,0,.25,0h.08a.8.8,0,0,0,.16-.08l2.22-1.46a.56.56,0,0,1,.28-.1.31.31,0,0,1,.13,0l0,0Zm-.74-2.51h0L130,89.31l-.17-.07-1.67-.37a.91.91,0,0,0-.95.44l-1.56,3a1.49,1.49,0,0,1-.36.4l2.63,1.52a1.25,1.25,0,0,0,.36-.41l1.57-3a.87.87,0,0,1,.94-.43l1.67.37Z" style="fill:#fff;opacity:0.2"></path><path d="M136.59,97.6l-.41-2.42a.4.4,0,0,0-.66-.28l-2.22,1.46a.64.64,0,0,1-.88-.21,4.47,4.47,0,0,0-.44-.52,1.1,1.1,0,0,1-.25-1.06l1.12-3a.55.55,0,0,0-.41-.76l-1.67-.37a.89.89,0,0,0-.94.43l-1.57,3a1.68,1.68,0,0,1-.95.72,7.29,7.29,0,0,0-1,.34.58.58,0,0,1-.79-.36l-.56-1.88a.42.42,0,0,0-.71-.22l-2.5,2a1.42,1.42,0,0,0-.47,1.06l.15,2.38A1.92,1.92,0,0,1,121,99c-.41.49-.8,1-1.16,1.53a1.3,1.3,0,0,1-1,.52l-1.61-.08a1,1,0,0,0-.92.57l-1.51,3.39a.63.63,0,0,0,.34.85l1.29.56a.79.79,0,0,1,.45.89,16.18,16.18,0,0,0-.28,1.62,2,2,0,0,1-.54,1.1l-2.22,2a1.38,1.38,0,0,0-.37,1.09l.42,2.42a.4.4,0,0,0,.66.29l2.21-1.46a.64.64,0,0,1,.89.2,4.52,4.52,0,0,0,.43.53,1.08,1.08,0,0,1,.26,1l-1.13,3.06a.55.55,0,0,0,.42.75l1.66.38a.91.91,0,0,0,1-.44l1.57-3a1.66,1.66,0,0,1,1-.71,8.71,8.71,0,0,0,1-.34.56.56,0,0,1,.79.36l.57,1.87a.41.41,0,0,0,.7.22l2.5-2a1.41,1.41,0,0,0,.48-1.06l-.15-2.38a1.92,1.92,0,0,1,.39-1.15c.41-.49.8-1,1.16-1.54a1.3,1.3,0,0,1,1-.52l1.6.08a1,1,0,0,0,.93-.56l1.51-3.39a.65.65,0,0,0-.34-.86l-1.3-.55a.81.81,0,0,1-.44-.9c.12-.54.21-1.08.28-1.61a2,2,0,0,1,.54-1.1l2.21-2A1.29,1.29,0,0,0,136.59,97.6Zm-10.67,12.88c-2.71,2.13-5.31,1.55-5.8-1.3s1.31-6.88,4-9,5.3-1.55,5.8,1.29S128.63,108.35,125.92,110.48Z" style="fill:#BA68C8"></path><path d="M85.35,87.7a2.22,2.22,0,0,0,.6-1.2l.57-6.4A1.55,1.55,0,0,1,87.21,79L93,75.7a.51.51,0,0,1,.44-.06L90.6,74a.41.41,0,0,0-.19,0,.56.56,0,0,0-.27.08l-5.76,3.33a1.51,1.51,0,0,0-.68,1.07l-.58,6.41a2.07,2.07,0,0,1-.61,1.19,36.85,36.85,0,0,0-3.19,3.39,1.11,1.11,0,0,1-1.14.32L74.5,88.48a.9.9,0,0,0-1,.39L69.22,96.2a.88.88,0,0,0,.19,1.08l3,2.56a1.12,1.12,0,0,1,.29,1.14,34.75,34.75,0,0,0-1.33,4.46,2.2,2.2,0,0,1-.74,1.12l-5.25,3.71a1.46,1.46,0,0,0-.59,1.12V118a.45.45,0,0,0,.2.43l2.83,1.64a.5.5,0,0,1-.2-.44V113a1.57,1.57,0,0,1,.58-1.14l5.26-3.69a2.14,2.14,0,0,0,.74-1.12,35.41,35.41,0,0,1,1.33-4.46,1.11,1.11,0,0,0-.28-1.15l-3-2.55a.88.88,0,0,1-.18-1.09l4.22-7.33a.93.93,0,0,1,1-.39L81,91.4a1.09,1.09,0,0,0,1.13-.32A34.34,34.34,0,0,1,85.35,87.7ZM74.21,118.18a.61.61,0,0,0-.86-.39l-1.24.56c.14.26.27.51.41.74a1.41,1.41,0,0,1,.08,1.25l-3.42,6.88a.77.77,0,0,0,.31,1l2.82,1.64a.8.8,0,0,1-.3-1L75.43,122a1.43,1.43,0,0,0-.08-1.24A11.17,11.17,0,0,1,74.21,118.18Zm12.3,12.47L86,125.06a.61.61,0,0,0-.77-.54,11.06,11.06,0,0,1-1.93.27l.43,4.23a.48.48,0,0,0,.21.39l2.84,1.64A.49.49,0,0,1,86.51,130.65ZM109.57,85h0a.5.5,0,0,0-.45,0l-3.88,1.75a11.68,11.68,0,0,1,.74,1.8.61.61,0,0,0,.85.4L112,86.61a.42.42,0,0,1,.45,0v0ZM100.3,73.32,96,79.72a1.43,1.43,0,0,1-1.11.56q-.42,0-.84,0l.13,1.37a.62.62,0,0,0,.77.54,11.9,11.9,0,0,1,2.78-.29,1.4,1.4,0,0,0,1.11-.55l4.26-6.4a.77.77,0,0,1,1-.23l-2.84-1.64A.78.78,0,0,0,100.3,73.32ZM95.72,91A8.78,8.78,0,0,1,97,96.1c0,6.21-4.35,13.75-9.72,16.85-2.1,1.21-3.88,1.62-5.28,1.28,1.74,2,4.71,2.31,8.11.36,5.37-3.1,9.73-10.65,9.73-16.85C99.82,94,98.2,91.55,95.72,91Z" style="fill:#BA68C8"></path><path d="M85.35,87.7a2.22,2.22,0,0,0,.6-1.2l.57-6.4A1.55,1.55,0,0,1,87.21,79L93,75.7a.51.51,0,0,1,.44-.06L90.6,74a.41.41,0,0,0-.19,0,.56.56,0,0,0-.27.08l-5.76,3.33a1.51,1.51,0,0,0-.68,1.07l-.58,6.41a2.07,2.07,0,0,1-.61,1.19,36.85,36.85,0,0,0-3.19,3.39,1.11,1.11,0,0,1-1.14.32L74.5,88.48a.9.9,0,0,0-1,.39L69.22,96.2a.88.88,0,0,0,.19,1.08l3,2.56a1.12,1.12,0,0,1,.29,1.14,34.75,34.75,0,0,0-1.33,4.46,2.2,2.2,0,0,1-.74,1.12l-5.25,3.71a1.46,1.46,0,0,0-.59,1.12V118a.45.45,0,0,0,.2.43l2.83,1.64a.5.5,0,0,1-.2-.44V113a1.57,1.57,0,0,1,.58-1.14l5.26-3.69a2.14,2.14,0,0,0,.74-1.12,35.41,35.41,0,0,1,1.33-4.46,1.11,1.11,0,0,0-.28-1.15l-3-2.55a.88.88,0,0,1-.18-1.09l4.22-7.33a.93.93,0,0,1,1-.39L81,91.4a1.09,1.09,0,0,0,1.13-.32A34.34,34.34,0,0,1,85.35,87.7ZM74.21,118.18a.61.61,0,0,0-.86-.39l-1.24.56c.14.26.27.51.41.74a1.41,1.41,0,0,1,.08,1.25l-3.42,6.88a.77.77,0,0,0,.31,1l2.82,1.64a.8.8,0,0,1-.3-1L75.43,122a1.43,1.43,0,0,0-.08-1.24A11.17,11.17,0,0,1,74.21,118.18Zm12.3,12.47L86,125.06a.61.61,0,0,0-.77-.54,11.06,11.06,0,0,1-1.93.27l.43,4.23a.48.48,0,0,0,.21.39l2.84,1.64A.49.49,0,0,1,86.51,130.65ZM109.57,85h0a.5.5,0,0,0-.45,0l-3.88,1.75a11.68,11.68,0,0,1,.74,1.8.61.61,0,0,0,.85.4L112,86.61a.42.42,0,0,1,.45,0v0ZM100.3,73.32,96,79.72a1.43,1.43,0,0,1-1.11.56q-.42,0-.84,0l.13,1.37a.62.62,0,0,0,.77.54,11.9,11.9,0,0,1,2.78-.29,1.4,1.4,0,0,0,1.11-.55l4.26-6.4a.77.77,0,0,1,1-.23l-2.84-1.64A.78.78,0,0,0,100.3,73.32ZM95.72,91A8.78,8.78,0,0,1,97,96.1c0,6.21-4.35,13.75-9.72,16.85-2.1,1.21-3.88,1.62-5.28,1.28,1.74,2,4.71,2.31,8.11.36,5.37-3.1,9.73-10.65,9.73-16.85C99.82,94,98.2,91.55,95.72,91Z" style="opacity:0.2"></path><path d="M112.6,93.68V87a.43.43,0,0,0-.65-.42l-5.13,2.31a.61.61,0,0,1-.85-.4A11.58,11.58,0,0,0,104.83,86a1.39,1.39,0,0,1-.08-1.24l3.41-6.89a.77.77,0,0,0-.3-1l-3.71-2.14a.78.78,0,0,0-1,.24l-4.25,6.4a1.43,1.43,0,0,1-1.12.56,10.81,10.81,0,0,0-2.77.28.61.61,0,0,1-.77-.54l-.56-5.6A.43.43,0,0,0,93,75.7L87.21,79a1.59,1.59,0,0,0-.69,1.08L86,86.5a2.18,2.18,0,0,1-.6,1.2,35.5,35.5,0,0,0-3.2,3.38A1.09,1.09,0,0,1,81,91.4l-3.7-1.29a.88.88,0,0,0-1,.39l-4.24,7.33a.92.92,0,0,0,.19,1.09l3,2.55a1.1,1.1,0,0,1,.29,1.14,34.42,34.42,0,0,0-1.33,4.47,2.15,2.15,0,0,1-.74,1.11l-5.26,3.71a1.53,1.53,0,0,0-.58,1.13v6.64a.43.43,0,0,0,.65.43l5.13-2.31a.6.6,0,0,1,.85.39,11.58,11.58,0,0,0,1.14,2.54,1.41,1.41,0,0,1,.08,1.25L72,128.85a.79.79,0,0,0,.31,1L76,132a.77.77,0,0,0,1-.23l4.26-6.41a1.42,1.42,0,0,1,1.11-.55,11.82,11.82,0,0,0,2.78-.28.6.6,0,0,1,.76.54l.57,5.59a.43.43,0,0,0,.69.36L93,127.69a1.54,1.54,0,0,0,.68-1.08l.58-6.4a2.18,2.18,0,0,1,.6-1.2,35.5,35.5,0,0,0,3.2-3.38,1.09,1.09,0,0,1,1.13-.33l3.69,1.29a.89.89,0,0,0,1-.38l4.23-7.33a.9.9,0,0,0-.18-1.09l-3-2.56a1.1,1.1,0,0,1-.28-1.14A35.41,35.41,0,0,0,106,99.63a2.12,2.12,0,0,1,.73-1.12l5.26-3.7A1.53,1.53,0,0,0,112.6,93.68Zm-22.51,20.9c-5.37,3.11-9.73.59-9.73-5.61s4.36-13.75,9.73-16.85,9.72-.58,9.72,5.62S95.46,111.48,90.09,114.58Z" style="fill:#BA68C8"></path><path d="M73.46,88.87,69.22,96.2a.88.88,0,0,0-.09.53L72,98.36a.83.83,0,0,1,.11-.53l4.22-7.33a.89.89,0,0,1,.72-.42l-2.81-1.65A.86.86,0,0,0,73.46,88.87Zm-2.87,17.69-5.25,3.71a1.21,1.21,0,0,0-.35.39l2.81,1.63a1.76,1.76,0,0,1,.36-.4l5.26-3.69a2.46,2.46,0,0,0,.42-.43L71,106.12A1.75,1.75,0,0,1,70.59,106.56Zm19.55-32.5-5.76,3.33a1.53,1.53,0,0,0-.58.69l2.83,1.64a1.5,1.5,0,0,1,.58-.7L93,75.7a.51.51,0,0,1,.44-.06L90.6,74A.45.45,0,0,0,90.14,74.06Zm10.16-.74L96,79.72a.91.91,0,0,1-.28.27l2.84,1.64a1.07,1.07,0,0,0,.28-.28l4.26-6.4a.77.77,0,0,1,1-.23l-2.84-1.64A.78.78,0,0,0,100.3,73.32Zm12.07,13.27,0,0h0ZM109.56,85a.54.54,0,0,0-.45,0l-3.88,1.75a7.55,7.55,0,0,1,.43,1,7.42,7.42,0,0,1,.3.83.69.69,0,0,0,.24.33.6.6,0,0,0,.62.07L112,86.61a.53.53,0,0,1,.24-.06.4.4,0,0,1,.15,0h0L109.56,85Z" style="fill:#BA68C8"></path><path d="M73.46,88.87,69.22,96.2a.88.88,0,0,0-.09.53L72,98.36a.83.83,0,0,1,.11-.53l4.22-7.33a.89.89,0,0,1,.72-.42l-2.81-1.65A.86.86,0,0,0,73.46,88.87Zm-2.87,17.69-5.25,3.71a1.21,1.21,0,0,0-.35.39l2.81,1.63a1.76,1.76,0,0,1,.36-.4l5.26-3.69a2.46,2.46,0,0,0,.42-.43L71,106.12A1.75,1.75,0,0,1,70.59,106.56Zm19.55-32.5-5.76,3.33a1.53,1.53,0,0,0-.58.69l2.83,1.64a1.5,1.5,0,0,1,.58-.7L93,75.7a.51.51,0,0,1,.44-.06L90.6,74A.45.45,0,0,0,90.14,74.06Zm10.16-.74L96,79.72a.91.91,0,0,1-.28.27l2.84,1.64a1.07,1.07,0,0,0,.28-.28l4.26-6.4a.77.77,0,0,1,1-.23l-2.84-1.64A.78.78,0,0,0,100.3,73.32Zm12.07,13.27,0,0h0ZM109.56,85a.54.54,0,0,0-.45,0l-3.88,1.75a7.55,7.55,0,0,1,.43,1,7.42,7.42,0,0,1,.3.83.69.69,0,0,0,.24.33.6.6,0,0,0,.62.07L112,86.61a.53.53,0,0,1,.24-.06.4.4,0,0,1,.15,0h0L109.56,85Z" style="fill:#fff;opacity:0.2"></path></g></g><g id="freepik--speech-bubble-1--inject-2"><g id="freepik--speech-bubble--inject-2"><g id="freepik--speech-bubble--inject-2"><path d="M217.48,262.31l1-2.94c.5-2.38-9.19,3.22-9.7,5.6l3.13,8.4a1.34,1.34,0,0,0,.52.62c.69.42,3.21,1.84,3.43,2a1.36,1.36,0,0,0,2-.74l4-13.88C222.1,260.18,219.87,261,217.48,262.31Z" style="fill:#BA68C8"></path><path d="M230.66,205.8l-36.85,21.26a2.74,2.74,0,0,0-1.25,2.16v43.66a2.72,2.72,0,0,0,1.25,2.15l2.28,1.29a2.79,2.79,0,0,0,2.5,0l36.85-21.25a2.77,2.77,0,0,0,1.25-2.16V209.22a2.72,2.72,0,0,0-1.25-2.14l-2.28-1.29A2.79,2.79,0,0,0,230.66,205.8Z" style="fill:#BA68C8"></path><path d="M235.44,208.5l-36.85,21.26a2.75,2.75,0,0,0-1.25,2.16v43.66c0,.8.56,1.12,1.25.72l14.1-8.13,2.59,7.18a1.36,1.36,0,0,0,2.53-.12l3.44-12,14.19-8.18a2.77,2.77,0,0,0,1.25-2.16V209.22C236.69,208.43,236.13,208.1,235.44,208.5Z" style="fill:#BA68C8"></path><path d="M235.44,208.5l-36.85,21.26a2.75,2.75,0,0,0-1.25,2.16v43.66c0,.8.56,1.12,1.25.72l14.1-8.13,2.59,7.18a1.36,1.36,0,0,0,2.53-.12l3.44-12,14.19-8.18a2.77,2.77,0,0,0,1.25-2.16V209.22C236.69,208.43,236.13,208.1,235.44,208.5Z" style="fill:#fff;opacity:0.30000000000000004"></path><path d="M236.67,209c-.1-.63-.61-.86-1.23-.5l-36.85,21.26a2.63,2.63,0,0,0-.88.93L193,227.94a2.42,2.42,0,0,1,.86-.88l36.85-21.26a2.75,2.75,0,0,1,2.5,0l2.27,1.28A2.73,2.73,0,0,1,236.67,209Z" style="fill:#fff;opacity:0.5"></path></g><g id="freepik--Bug--inject-2"><path d="M230.5,239.88l-.82-6.1a1.35,1.35,0,0,0-.86-1.09,1.25,1.25,0,0,0-.51-.1,1.4,1.4,0,0,0-.86.3L226.14,234a9.94,9.94,0,0,0-.86-1.86l1-2.28,1.38-4.81a1.39,1.39,0,0,0-.95-1.71,1.65,1.65,0,0,0-.38,0,1.39,1.39,0,0,0-1.33,1l-1.31,4.6-.45,1.06-.08-.06a5.12,5.12,0,0,0-1.87-.7l1.06-4.1a1.38,1.38,0,0,0-1-1.68,1.41,1.41,0,0,0-.35-.05,1.37,1.37,0,0,0-1.33,1l-1.29,5a8.52,8.52,0,0,0-1.41.6l-.44.26-.65-2.41a1.39,1.39,0,0,0-1.34-1,1.49,1.49,0,0,0-.36.05,1.38,1.38,0,0,0-1,1.69l1,3.57a19.6,19.6,0,0,0-3,3.93l-.82-2.55a1.38,1.38,0,0,0-1.32-1,1.52,1.52,0,0,0-.42.06,1.4,1.4,0,0,0-.89,1.74l1.14,3.55.78,1.21a28,28,0,0,0-1.51,4.75l-2.35.62a1.38,1.38,0,0,0-1,1.1l-1.23,7.2a1.38,1.38,0,0,0,1.13,1.59l.23,0a1.37,1.37,0,0,0,1.36-1.15l1.08-6.32.29-.08c-.06.6-.1,1.19-.12,1.78a17,17,0,0,0,.57,5.19l-2.33,2.82a1.37,1.37,0,0,0-.17,1.49l2.28,4.63a1.37,1.37,0,0,0,1.24.77,1.43,1.43,0,0,0,.61-.14,1.39,1.39,0,0,0,.63-1.85l-1.89-3.83.89-1.08a6.46,6.46,0,0,0,1.93,1.9,5.36,5.36,0,0,0,2.85.81,7.05,7.05,0,0,0,3.33-.91l.09-.06h0c3.22-1.78,6.12-5.94,7.81-10.71l.58.09-2.08,5.72a1.37,1.37,0,0,0,.82,1.77,1.27,1.27,0,0,0,.47.09,1.39,1.39,0,0,0,1.3-.91l2.66-7.29a1.38,1.38,0,0,0-1.08-1.83l-1.88-.31a25.08,25.08,0,0,0,.74-5.19,19.15,19.15,0,0,0-.11-2.77l.48-.39.49,3.67a1.39,1.39,0,0,0,1.37,1.19h.19a1.34,1.34,0,0,0,.91-.53A1.37,1.37,0,0,0,230.5,239.88Zm-8.45-7.42a14.38,14.38,0,0,1-5.36,5.89,5,5,0,0,1-2.31.67,2.55,2.55,0,0,1-1.48-.43,14.29,14.29,0,0,1,5.36-6.21,4.41,4.41,0,0,1,2-.58,2.61,2.61,0,0,1,1.39.39A3.18,3.18,0,0,1,222.05,232.46Zm-9.32,23.67c-1.66-1-2.57-3.81-2.46-7.46a24.24,24.24,0,0,1,1.51-7.51,5.4,5.4,0,0,0,2.57.63,6.5,6.5,0,0,0,1.55-.19l-.45,14.66a3.94,3.94,0,0,1-1.33.27A2.59,2.59,0,0,1,212.73,256.13Zm5.54-1.8.43-14a16.74,16.74,0,0,0,5-5.17,14.33,14.33,0,0,1,.49,4.46C224,245.21,221.49,251.16,218.27,254.33Z" style="fill:#fff;opacity:0.2"></path><g style="opacity:0.30000000000000004"><path d="M214.12,258.64a4.69,4.69,0,0,1-2.51-.71c-2.33-1.45-3.59-4.85-3.46-9.33.24-7.52,4.24-15.47,9.11-18.08a6.44,6.44,0,0,1,3-.83,4.65,4.65,0,0,1,2.5.7c2.34,1.45,3.6,4.85,3.46,9.33-.23,7.4-4.31,15.52-9.1,18.09A6.44,6.44,0,0,1,214.12,258.64Zm6.17-27.49a5.08,5.08,0,0,0-2.34.66c-4.37,2.35-8.11,9.9-8.33,16.84-.12,3.88.91,6.89,2.77,8a3.17,3.17,0,0,0,1.73.49,4.93,4.93,0,0,0,2.33-.66c4.38-2.35,8.12-9.9,8.33-16.83.12-3.89-.91-6.89-2.76-8A3.28,3.28,0,0,0,220.29,231.15Z" style="fill:#fff"></path><path d="M223.9,232.55a.66.66,0,0,1-.28-.05.75.75,0,0,1-.4-1l1.05-2.47,1.32-4.64a.74.74,0,0,1,.71-.53l.2,0a.74.74,0,0,1,.51.91l-1.38,4.78-1,2.51A.73.73,0,0,1,223.9,232.55Z" style="fill:#fff"></path><path d="M214.35,241.15a4.68,4.68,0,0,1-3.88-2,.74.74,0,0,1,.15-1,.77.77,0,0,1,.44-.14.73.73,0,0,1,.59.3,3.29,3.29,0,0,0,2.73,1.39,5.71,5.71,0,0,0,2.62-.75,15.88,15.88,0,0,0,6.23-7.4.74.74,0,0,1,.67-.43.73.73,0,0,1,.3.06.75.75,0,0,1,.39.41.73.73,0,0,1,0,.56,17,17,0,0,1-6.88,8.09A7.1,7.1,0,0,1,214.35,241.15Z" style="fill:#fff"></path><path d="M216.79,257.89a.7.7,0,0,1-.53-.23.72.72,0,0,1-.19-.52l.54-17.6a.73.73,0,0,1,.75-.71.76.76,0,0,1,.52.23.71.71,0,0,1,.2.53l-.55,17.59a.73.73,0,0,1-.73.72Z" style="fill:#fff"></path><path d="M219.54,231l-.19,0a.75.75,0,0,1-.53-.9l1.45-5.61A.74.74,0,0,1,221,224l.19,0a.74.74,0,0,1,.53.9l-1.45,5.61A.75.75,0,0,1,219.54,231Z" style="fill:#fff"></path><path d="M211.06,239.45a.75.75,0,0,1-.62-.34l-1-1.54-1.11-3.46a.73.73,0,0,1,.48-.92.85.85,0,0,1,.22,0,.74.74,0,0,1,.7.51l1.05,3.27.89,1.38a.75.75,0,0,1,.11.56.8.8,0,0,1-.32.46A.72.72,0,0,1,211.06,239.45Z" style="fill:#fff"></path><path d="M215.66,233.12a.72.72,0,0,1-.7-.54l-1.15-4.23a.74.74,0,0,1,.52-.9.62.62,0,0,1,.19,0,.73.73,0,0,1,.71.54l1.14,4.22a.73.73,0,0,1-.51.9A.69.69,0,0,1,215.66,233.12Z" style="fill:#fff"></path><path d="M229.13,240.8a.73.73,0,0,1-.72-.64l-.65-4.8-1.58,1.27a.73.73,0,0,1-1-.11.74.74,0,0,1,.12-1l2.59-2.09a.73.73,0,0,1,.46-.17.67.67,0,0,1,.28.06.72.72,0,0,1,.45.58l.82,6.1a.72.72,0,0,1-.63.82Z" style="fill:#fff"></path><path d="M225.16,254.62a.74.74,0,0,1-.25-.05.73.73,0,0,1-.44-.94l2.35-6.45-1.79-.29a.74.74,0,0,1,.12-1.46h.12l2.67.43a.75.75,0,0,1,.57,1l-2.66,7.29A.74.74,0,0,1,225.16,254.62Z" style="fill:#fff"></path><path d="M204.9,253.7h-.13a.74.74,0,0,1-.59-.85l1.23-7.19a.73.73,0,0,1,.53-.59l2.56-.67a.58.58,0,0,1,.19,0,.73.73,0,0,1,.18,1.44l-2.09.55-1.16,6.73A.72.72,0,0,1,204.9,253.7Z" style="fill:#fff"></path><path d="M209.1,262.84a.74.74,0,0,1-.66-.41l-2.29-4.64a.73.73,0,0,1,.1-.79l2.37-2.87a.74.74,0,0,1,.57-.27.75.75,0,0,1,.47.17.77.77,0,0,1,.26.5.71.71,0,0,1-.17.54l-2.07,2.5,2.08,4.21a.73.73,0,0,1-.33,1A.8.8,0,0,1,209.1,262.84Z" style="fill:#fff"></path></g><path d="M228.7,233.92a.39.39,0,0,0-.24-.31.4.4,0,0,0-.15,0,.38.38,0,0,0-.24.09l-2.48,2a9.5,9.5,0,0,0-1.43-3.49l.09-.2h0l1.05-2.49,1.36-4.75a.39.39,0,0,0-.26-.48l-.11,0a.39.39,0,0,0-.37.28l-1.33,4.66-1,2.34a5.13,5.13,0,0,0-1-.82,4.29,4.29,0,0,0-2.32-.66l-.29,0,1.36-5.26a.38.38,0,0,0-.28-.47H221a.38.38,0,0,0-.37.29l-1.44,5.57a7.2,7.2,0,0,0-1.75.65,10.66,10.66,0,0,0-1.5,1l-1-3.77a.4.4,0,0,0-.38-.29l-.1,0a.38.38,0,0,0-.27.47l1.11,4.12a19.55,19.55,0,0,0-4.12,5.76l-.67-1-1.07-3.33a.39.39,0,0,0-.37-.27l-.12,0a.39.39,0,0,0-.25.49l1.11,3.42,1,1.49h0v0a27.1,27.1,0,0,0-1.83,5.85.37.37,0,0,0-.24-.1l-.1,0-2.56.67a.4.4,0,0,0-.28.31l-1.23,7.19a.39.39,0,0,0,.31.45h.07a.39.39,0,0,0,.38-.33l1.19-6.95,2.31-.61h0a22.42,22.42,0,0,0-.32,3.15,15.1,15.1,0,0,0,.76,5.61h-.07a.37.37,0,0,0-.3.14l-2.37,2.87a.38.38,0,0,0-.05.42l2.28,4.63a.4.4,0,0,0,.35.22.47.47,0,0,0,.17,0,.4.4,0,0,0,.18-.52l-2.18-4.41,2.22-2.67a0,0,0,0,1,0,0,6.12,6.12,0,0,0,2.3,2.82,4.37,4.37,0,0,0,2.32.65,6.09,6.09,0,0,0,2.83-.77h0c3.3-1.77,6.25-6.23,7.79-11.25a.61.61,0,0,0,.07.14.37.37,0,0,0,.25.15l2.21.37-2.5,6.84a.4.4,0,0,0,.23.5l.13,0a.4.4,0,0,0,.37-.25l2.65-7.29a.38.38,0,0,0,0-.33.39.39,0,0,0-.27-.18l-2.66-.44h-.07a.4.4,0,0,0-.26.1,24.78,24.78,0,0,0,1-6.17,17.9,17.9,0,0,0-.17-3.26.45.45,0,0,0,.23-.09L228,234.7l.73,5.42a.38.38,0,0,0,.38.33h.05a.4.4,0,0,0,.26-.15.43.43,0,0,0,.08-.29Zm-10.91-2.41a5.22,5.22,0,0,1,2.5-.7,3.56,3.56,0,0,1,1.91.54,4.4,4.4,0,0,1,1.06.93,15.88,15.88,0,0,1-6.1,6.95,5.93,5.93,0,0,1-2.78.78,3.59,3.59,0,0,1-2.7-1.15C213.25,235.52,215.43,232.77,217.79,231.51ZM212.2,257c-2-1.21-3-4.33-2.92-8.34a25.39,25.39,0,0,1,2.06-9,4.28,4.28,0,0,0,3,1.19,6.42,6.42,0,0,0,2.59-.61l-.52,16.72a5.14,5.14,0,0,1-2.3.61A3.59,3.59,0,0,1,212.2,257Zm12.93-17.29c-.21,6.73-3.71,14-7.92,16.78l.52-16.68a16.24,16.24,0,0,0,6-6.8A12.43,12.43,0,0,1,225.13,239.69Z" style="fill:#fff;opacity:0.5"></path></g></g></g></svg>